<?xml version="1.0" encoding="utf-8"?>
<!-- Generator: Adobe Illustrator 19.0.0, SVG Export Plug-In . SVG Version: 6.00 Build 0)  -->
<svg version="1.1" id="a14aeead-7a51-49c7-9dde-c662f5733ecb"
	 xmlns="http://www.w3.org/2000/svg" xmlns:xlink="http://www.w3.org/1999/xlink" x="0px" y="0px" viewBox="-472 298.1 782 701.9"
	 style="enable-background:new -472 298.1 782 701.9;" xml:space="preserve">
<style type="text/css">
	.st0{fill:#FFFFFF;}
	.st1{fill:#F2F2F2;}
	.st2{fill:#0F810F;}
</style>
<path d="M-71.5,299.7l-25.4,6.6l-313.5,80.8l-25.4,6.6c-25.7,6.7-41.2,32.9-34.6,58.6l110.3,427.9c6.7,25.7,32.9,41.2,58.6,34.6
	l0.1,0l364.3-93.9l0.1,0c25.7-6.7,41.2-32.9,34.6-58.6L-12.9,334.2C-19.5,308.5-45.8,293-71.5,299.7z"/>
<path class="st0" d="M-68,313.1l-30.1,7.8l-304.1,78.4l-30.1,7.8c-18.3,4.7-29.3,23.4-24.6,41.7l110.3,427.9
	c4.7,18.3,23.4,29.3,41.7,24.6l0.1,0l364.3-93.9l0.1,0c18.3-4.7,29.3-23.4,24.6-41.7L-26.3,337.7C-31,319.4-49.7,308.4-68,313.1z"/>
<path d="M-90.8,451.6l-184.3,47.5c-4.3,1.1-8.7-1.5-9.8-5.8c-1.1-4.3,1.5-8.6,5.8-9.8l184.3-47.5c4.3-1.1,8.7,1.5,9.8,5.8
	C-83.9,446.2-86.5,450.5-90.8,451.6z"/>
<path d="M-52,469.6l-216.3,55.8c-4.3,1.1-8.7-1.5-9.8-5.7s1.5-8.7,5.7-9.8c0,0,0,0,0,0L-56,454c4.3-1.1,8.7,1.5,9.8,5.8
	C-45.2,464.1-47.7,468.5-52,469.6L-52,469.6z"/>
<path class="st1" d="M-60.5,569l-184.3,47.5c-4.3,1.1-8.7-1.5-9.8-5.7c-1.1-4.3,1.5-8.7,5.7-9.8c0,0,0,0,0,0l184.3-47.5
	c4.3-1.1,8.7,1.5,9.8,5.7C-53.6,563.5-56.2,567.9-60.5,569C-60.5,569-60.5,569-60.5,569L-60.5,569z"/>
<path class="st1" d="M-21.8,586.9L-238,642.7c-4.3,1.1-8.7-1.5-9.8-5.7s1.5-8.7,5.7-9.8c0,0,0,0,0,0l216.3-55.8
	c4.3-1.1,8.7,1.5,9.8,5.8C-14.9,581.5-17.5,585.8-21.8,586.9z"/>
<path class="st1" d="M-30.3,686.4l-184.3,47.5c-4.3,1.1-8.7-1.5-9.8-5.8c-1.1-4.3,1.5-8.6,5.7-9.7l184.3-47.5
	c4.3-1.1,8.7,1.5,9.8,5.8C-23.4,680.9-26,685.3-30.3,686.4z"/>
<path class="st1" d="M8.5,704.3l-216.3,55.8c-4.3,1.1-8.7-1.5-9.8-5.7s1.5-8.7,5.7-9.8c0,0,0,0,0,0L4.5,688.8
	c4.3-1.1,8.7,1.5,9.8,5.8C15.4,698.8,12.8,703.2,8.5,704.3z"/>
<path class="st2" d="M-306.5,547.9l-65.2,16.8c-2.1,0.5-4.1-0.7-4.7-2.8l-15-58c-0.5-2.1,0.7-4.1,2.8-4.7l65.2-16.8
	c2.1-0.5,4.1,0.7,4.7,2.8l15,58C-303.2,545.2-304.5,547.3-306.5,547.9z"/>
<path class="st2" d="M-276.3,665.2l-65.2,16.8c-2.1,0.5-4.1-0.7-4.7-2.8l-15-58c-0.5-2.1,0.7-4.1,2.8-4.7l65.2-16.8
	c2.1-0.5,4.1,0.7,4.7,2.8l15,58C-273,662.6-274.2,664.7-276.3,665.2z"/>
<path class="st2" d="M-246,782.6l-65.2,16.8c-2.1,0.5-4.1-0.7-4.7-2.8l-15-58c-0.5-2.1,0.7-4.1,2.8-4.7l65.2-16.8
	c2.1-0.5,4.1,0.7,4.7,2.8l15,58C-242.7,780-243.9,782.1-246,782.6z"/>
<path d="M182.7,408.1h-376.3c-26.6,0-48.1,21.6-48.1,48.1v441.9c0,26.6,21.6,48.1,48.1,48.1h376.3c26.6,0,48.1-21.6,48.1-48.1V456.2
	C230.8,429.7,209.2,408.1,182.7,408.1z"/>
<path class="st0" d="M182.7,422h-376.3c-18.9,0-34.2,15.4-34.3,34.3v441.9c0,18.9,15.4,34.2,34.3,34.3h376.3
	c18.9,0,34.2-15.4,34.3-34.3V456.2C216.9,437.3,201.6,422,182.7,422z"/>
<circle class="st2" cx="222.2" cy="912.1" r="87.9"/>
<path class="st0" d="M264.2,900.7h-30.6v-30.6c0-6.3-5.1-11.5-11.5-11.4c-6.3,0-11.4,5.1-11.4,11.4v30.6h-30.6
	c-6.3,0-11.5,5.1-11.4,11.5c0,6.3,5.1,11.4,11.4,11.4h30.6v30.6c0,6.3,5.1,11.5,11.4,11.5s11.5-5.1,11.5-11.4c0,0,0,0,0,0v-30.6
	h30.6c6.3,0,11.5-5.1,11.4-11.5C275.6,905.8,270.5,900.7,264.2,900.7L264.2,900.7z"/>
<path d="M126,664.8H-64.3c-4.4,0-8-3.6-8-8s3.6-8,8-8c0,0,0,0,0,0H126c4.4,0,8,3.6,8,8C134,661.2,130.4,664.8,126,664.8z"/>
<path d="M159.1,691.8H-64.3c-4.4,0-8-3.6-8-8c0-4.4,3.6-8,8-8c0,0,0,0,0,0h223.4c4.4,0,8,3.6,8,8
	C167.1,688.2,163.5,691.8,159.1,691.8z"/>
<path d="M126,786H-64.3c-4.4,0-8-3.6-8-8c0-4.4,3.6-8,8-8H126c4.4,0,8,3.6,8,8C134,782.4,130.4,786,126,786z"/>
<path d="M159.1,813H-64.3c-4.4,0-8-3.6-8-8c0-4.4,3.6-8,8-8h223.4c4.4,0,8,3.6,8,8C167.1,809.4,163.5,813,159.1,813z"/>
<path class="st2" d="M-106.9,704.1h-67.3c-2.1,0-3.8-1.7-3.8-3.8v-59.9c0-2.1,1.7-3.8,3.8-3.8h67.3c2.1,0,3.8,1.7,3.8,3.8v59.9
	C-103.1,702.4-104.8,704.1-106.9,704.1z"/>
<path class="st2" d="M-106.9,825.3h-67.3c-2.1,0-3.8-1.7-3.8-3.8v-59.9c0-2.1,1.7-3.8,3.8-3.8h67.3c2.1,0,3.8,1.7,3.8,3.8v59.9
	C-103.1,823.6-104.8,825.3-106.9,825.3z"/>
<path d="M126.2,529.8H-14.1c-4.4,0-8-3.6-8-8s3.6-8,8-8h140.3c4.4,0,8,3.6,8,8S130.7,529.8,126.2,529.8z"/>
<path d="M159.3,556.9H-14.1c-4.4,0-8-3.6-8-8s3.6-8,8-8h173.4c4.4,0,8,3.6,8,8S163.7,556.9,159.3,556.9L159.3,556.9z"/>
<path class="st2" d="M-45.1,589.7h-129.3c-2.1,0-3.8-1.7-3.8-3.8V484.9c0-2.1,1.7-3.8,3.8-3.8h129.3c2.1,0,3.8,1.7,3.8,3.8v100.9
	C-41.3,587.9-43,589.7-45.1,589.7z"/>
</svg>
