<?xml version="1.0" encoding="utf-8"?>
<!-- Generator: Adobe Illustrator 19.0.0, SVG Export Plug-In . SVG Version: 6.00 Build 0)  -->
<svg version="1.1" id="ae37f038-3a9e-4b82-ad68-fc94ba16af2a"
	 xmlns="http://www.w3.org/2000/svg" xmlns:xlink="http://www.w3.org/1999/xlink" x="0px" y="0px" viewBox="-315 361.3 1096 574.7"
	 style="enable-background:new -315 361.3 1096 574.7;" xml:space="preserve">
<style type="text/css">
	.st0{fill:#0F810F;}
	.st1{opacity:0.1;fill:#0F810F;enable-background:new    ;}
	.st2{fill:none;stroke:#3F3D56;stroke-width:4;stroke-miterlimit:10;}
	.st3{opacity:0.1;enable-background:new    ;}
	.st4{fill:#3F3D56;}
	.st5{fill:url(#SVGID_1_);}
	.st6{fill:#2F2E41;}
	.st7{fill:#FBBEBE;}
	.st8{fill:#E8E8F0;}
	.st9{fill:#F86D70;}
</style>
<title>contact us</title>
<g>
	<ellipse class="st0" cx="164.4" cy="723.4" rx="11.4" ry="14.9"/>
	<path class="st0" d="M173.4,659.6c1.6-2.8,2.4-5.9,2.4-9.1c0-8.2-5.1-14.9-11.4-14.9s-11.4,6.7-11.4,14.9c0,3.2,0.8,6.3,2.4,9.1
		c-3.2,5.7-3.2,12.6,0,18.2c-3.2,5.7-3.2,12.6,0,18.2c-1.6,2.8-2.4,5.9-2.4,9.1c0,8.2,5.1,14.9,11.4,14.9s11.4-6.7,11.4-14.9
		c0-3.2-0.8-6.3-2.4-9.1c3.2-5.7,3.2-12.6,0-18.2C176.6,672.2,176.6,665.3,173.4,659.6L173.4,659.6z"/>
	<ellipse class="st0" cx="164.4" cy="632.3" rx="11.4" ry="14.9"/>
	<ellipse class="st0" cx="164.4" cy="614.1" rx="11.4" ry="14.9"/>
	<path class="st0" d="M121.8,489.5c-1.6-2-3-4.1-4.2-6.2l29.9-4.9l-32.3,0.2c-6.3-13.7-6.6-29.3-1-43.2l43.4,22.5l-40-29.4
		c14.9-26.2,48.2-35.3,74.4-20.4s35.3,48.2,20.4,74.4c-1.4,2.5-3,4.8-4.8,7.1c2.4,3.1,4.5,6.4,6.2,9.9l-38.8,20.2l41.4-13.9
		c5.9,17.5,2.6,36.7-8.8,51.2c18.6,23.7,14.5,57.9-9.1,76.6s-57.9,14.5-76.6-9.1c-15.6-19.8-15.6-47.6,0-67.4
		C106.3,537.2,106.3,509.3,121.8,489.5L121.8,489.5z"/>
	<path class="st1" d="M219.2,523.2c0,12.2-4.1,24.1-11.7,33.7c18.6,23.7,14.5,57.9-9.1,76.6c-23.7,18.6-57.9,14.5-76.6-9.1
		c-15.6-19.8-15.6-47.6,0-67.4C114.5,547.6,219.2,517.1,219.2,523.2z"/>
</g>
<g>
	<ellipse class="st0" cx="297.3" cy="691.5" rx="8.5" ry="11.1"/>
	<path class="st0" d="M304,643.9c1.2-2.1,1.8-4.4,1.8-6.8c0-6.1-3.8-11.1-8.5-11.1s-8.5,5-8.5,11.1c0,2.4,0.6,4.7,1.8,6.8
		c-2.4,4.2-2.4,9.4,0,13.6c-2.4,4.2-2.4,9.4,0,13.6c-1.2,2.1-1.8,4.4-1.8,6.8c0,6.1,3.8,11.1,8.5,11.1s8.5-5,8.5-11.1
		c0-2.4-0.6-4.7-1.8-6.8c2.4-4.2,2.4-9.4,0-13.6C306.4,653.3,306.4,648.1,304,643.9z"/>
	<ellipse class="st0" cx="297.3" cy="623.5" rx="8.5" ry="11.1"/>
	<ellipse class="st0" cx="297.3" cy="609.9" rx="8.5" ry="11.1"/>
	<path class="st0" d="M265.4,516.7c-1.2-1.5-2.2-3-3.2-4.7l22.3-3.7l-24.2,0.2c-4.7-10.2-5-21.9-0.8-32.3l32.4,16.8l-29.9-22
		c11.2-19.5,36.2-26.2,55.7-15c19.5,11.2,26.2,36.2,15,55.7c-1,1.7-2.1,3.3-3.3,4.9c1.8,2.3,3.4,4.8,4.7,7.4l-29,15.1l30.9-10.4
		c4.4,13,1.9,27.4-6.6,38.3c13.9,17.7,10.9,43.3-6.8,57.2c-17.7,13.9-43.3,10.9-57.2-6.8c-11.7-14.8-11.7-35.6,0-50.4
		C253.9,552.3,253.9,531.5,265.4,516.7L265.4,516.7z"/>
	<path class="st1" d="M338.2,541.9c0,9.1-3.1,18-8.7,25.2c13.9,17.7,10.9,43.3-6.8,57.2s-43.3,10.9-57.2-6.8
		c-11.7-14.8-11.7-35.6,0-50.4C260,560.2,338.2,537.4,338.2,541.9z"/>
</g>
<g>
	<ellipse class="st0" cx="723.6" cy="683.4" rx="11.4" ry="14.9"/>
	<path class="st0" d="M714.6,619.6c-1.6-2.8-2.4-5.9-2.4-9.1c0-8.2,5.1-14.9,11.4-14.9s11.4,6.7,11.4,14.9c0,3.2-0.8,6.3-2.4,9.1
		c3.2,5.7,3.2,12.6,0,18.2c3.2,5.7,3.2,12.6,0,18.2c1.6,2.8,2.4,5.9,2.4,9.1c0,8.2-5.1,14.9-11.4,14.9s-11.4-6.7-11.4-14.9
		c0-3.2,0.8-6.3,2.4-9.1c-3.2-5.7-3.2-12.6,0-18.2C711.4,632.2,711.4,625.3,714.6,619.6z"/>
	<ellipse class="st0" cx="723.6" cy="592.3" rx="11.4" ry="14.9"/>
	<ellipse class="st0" cx="723.6" cy="574.1" rx="11.4" ry="14.9"/>
	<path class="st0" d="M766.2,449.5c1.6-2,3-4.1,4.2-6.2l-29.9-4.9l32.3,0.2c6.3-13.7,6.6-29.3,1-43.2l-43.4,22.5l40-29.4
		c-14.9-26.2-48.2-35.3-74.4-20.4c-26.2,14.9-35.3,48.2-20.4,74.4c1.4,2.5,3,4.8,4.8,7.1c-2.4,3.1-4.5,6.4-6.2,9.9l38.8,20.2
		l-41.4-13.9c-5.9,17.5-2.6,36.7,8.8,51.2c-18.6,23.7-14.5,57.9,9.1,76.6s57.9,14.5,76.6-9.1c15.6-19.8,15.6-47.6,0-67.4
		C781.7,497.2,781.7,469.3,766.2,449.5L766.2,449.5z"/>
	<path class="st1" d="M668.8,483.2c0,12.2,4.1,24.1,11.7,33.7c-18.6,23.7-14.5,57.9,9.1,76.6s57.9,14.5,76.6-9.1
		c15.6-19.8,15.6-47.6,0-67.4C773.5,507.6,668.8,477.1,668.8,483.2z"/>
</g>
<g>
	<ellipse class="st0" cx="613.7" cy="685.5" rx="8.5" ry="11.1"/>
	<path class="st0" d="M607,637.9c-1.2-2.1-1.8-4.4-1.8-6.8c0-6.1,3.8-11.1,8.5-11.1s8.5,5,8.5,11.1c0,2.4-0.6,4.7-1.8,6.8
		c2.4,4.2,2.4,9.4,0,13.6c2.4,4.2,2.4,9.4,0,13.6c1.2,2.1,1.8,4.4,1.8,6.8c0,6.1-3.8,11.1-8.5,11.1s-8.5-5-8.5-11.1
		c0-2.4,0.6-4.7,1.8-6.8c-2.4-4.2-2.4-9.4,0-13.6C604.6,647.3,604.6,642.1,607,637.9z"/>
	<ellipse class="st0" cx="613.7" cy="617.5" rx="8.5" ry="11.1"/>
	<ellipse class="st0" cx="613.7" cy="603.9" rx="8.5" ry="11.1"/>
	<path class="st0" d="M645.6,510.7c1.2-1.5,2.2-3,3.2-4.7l-22.3-3.7l24.2,0.2c4.7-10.2,5-21.9,0.8-32.3l-32.4,16.8l29.9-22
		c-11.2-19.5-36.2-26.2-55.7-15c-19.5,11.2-26.2,36.2-15,55.7c1,1.7,2.1,3.3,3.3,4.9c-1.8,2.3-3.4,4.8-4.7,7.4l29,15.1L575,522.9
		c-4.4,13-1.9,27.4,6.6,38.3c-13.9,17.7-10.9,43.3,6.8,57.2c17.7,13.9,43.3,10.9,57.2-6.8c11.7-14.8,11.7-35.6,0-50.4
		C657.2,546.3,657.2,525.5,645.6,510.7L645.6,510.7z"/>
	<path class="st1" d="M572.8,535.9c0,9.1,3.1,18,8.7,25.2c-13.9,17.7-10.9,43.3,6.8,57.2s43.3,10.9,57.2-6.8
		c11.7-14.8,11.7-35.6,0-50.4C651,554.2,572.8,531.4,572.8,535.9z"/>
</g>
<g>
	<ellipse class="st0" cx="-253.4" cy="683.4" rx="11.4" ry="14.9"/>
	<path class="st0" d="M-244.4,619.6c1.6-2.8,2.4-5.9,2.4-9.1c0-8.2-5.1-14.9-11.4-14.9s-11.4,6.7-11.4,14.9c0,3.2,0.8,6.3,2.4,9.1
		c-3.2,5.7-3.2,12.6,0,18.2c-3.2,5.7-3.2,12.6,0,18.2c-1.6,2.8-2.4,5.9-2.4,9.1c0,8.2,5.1,14.9,11.4,14.9c6.3,0,11.4-6.7,11.4-14.9
		c0-3.2-0.8-6.3-2.4-9.1c3.2-5.7,3.2-12.6,0-18.2C-241.2,632.2-241.2,625.3-244.4,619.6L-244.4,619.6z"/>
	<ellipse class="st0" cx="-253.4" cy="592.3" rx="11.4" ry="14.9"/>
	<ellipse class="st0" cx="-253.4" cy="574.1" rx="11.4" ry="14.9"/>
	<path class="st0" d="M-296,449.5c-1.6-2-3-4.1-4.2-6.2l29.9-4.9l-32.4,0.3c-6.3-13.7-6.6-29.3-1-43.2l43.4,22.5l-40-29.4
		c14.9-26.1,48.3-35.2,74.4-20.3c26.1,14.9,35.2,48.3,20.3,74.4c-1.4,2.4-2.9,4.7-4.7,6.9c2.4,3.1,4.5,6.4,6.2,9.9l-38.8,20.2
		l41.4-13.9c5.9,17.5,2.6,36.7-8.8,51.2c18.6,23.7,14.5,57.9-9.1,76.6s-57.9,14.5-76.6-9.1c-15.6-19.8-15.6-47.6,0-67.4
		C-311.6,497.2-311.6,469.3-296,449.5L-296,449.5z"/>
	<path class="st1" d="M-198.6,483.2c0,12.2-4.1,24.1-11.7,33.7c18.6,23.7,14.5,57.9-9.1,76.6s-57.9,14.5-76.6-9.1
		c-15.6-19.8-15.6-47.6,0-67.4C-303.3,507.6-198.6,477.1-198.6,483.2z"/>
</g>
<g>
	<ellipse class="st0" cx="-143.6" cy="685.5" rx="8.5" ry="11.1"/>
	<path class="st0" d="M-136.8,637.9c1.2-2.1,1.8-4.4,1.8-6.8c0-6.1-3.8-11.1-8.5-11.1s-8.5,5-8.5,11.1c0,2.4,0.6,4.7,1.8,6.8
		c-2.4,4.2-2.4,9.4,0,13.6c-2.4,4.2-2.4,9.4,0,13.6c-1.2,2.1-1.8,4.4-1.8,6.8c0,6.1,3.8,11.1,8.5,11.1s8.5-5,8.5-11.1
		c0-2.4-0.6-4.7-1.8-6.8c2.4-4.2,2.4-9.4,0-13.6C-134.5,647.3-134.5,642.1-136.8,637.9z"/>
	<ellipse class="st0" cx="-143.6" cy="617.5" rx="8.5" ry="11.1"/>
	<ellipse class="st0" cx="-143.6" cy="603.9" rx="8.5" ry="11.1"/>
	<path class="st0" d="M-175.4,510.7c-1.2-1.5-2.2-3-3.2-4.7l22.4-3.7l-24.2,0.2c-4.7-10.2-5-21.9-0.8-32.3l32.4,16.8l-29.9-22
		c11.2-19.5,36.2-26.2,55.7-14.9s26.2,36.2,14.9,55.7c-1,1.7-2.1,3.3-3.3,4.9c1.8,2.3,3.4,4.8,4.6,7.4l-29,15.1l30.9-10.4
		c4.4,13,1.9,27.4-6.6,38.3c13.9,17.7,10.9,43.3-6.8,57.2c-17.7,13.9-43.3,10.9-57.2-6.8c-11.7-14.8-11.7-35.6,0-50.4
		C-187,546.3-187,525.5-175.4,510.7L-175.4,510.7z"/>
	<path class="st1" d="M-102.6,535.9c0,9.1-3.1,18-8.7,25.2c13.9,17.7,10.9,43.3-6.8,57.2s-43.3,10.9-57.2-6.8
		c-11.7-14.8-11.7-35.6,0-50.4C-180.9,554.2-102.6,531.4-102.6,535.9z"/>
</g>
<path class="st1" d="M493.8,471.6c-3.6-0.7-7.3-0.3-10.6,1.2c-4.1,1.8-8.7,1.8-12.7,0c-4.8-2.1-10.3-2-15,0.3
	c-1.3,0.7-2.8,1.1-4.3,1.1c-6.1,0-11.1-6.1-12.2-14.2c1.2-0.9,2.2-2,3-3.3c3.6-5.7,9.1-9.4,15.3-9.4s11.6,3.6,15.2,9.3
	c2.2,3.5,6,5.6,10.1,5.5h0.2C487.6,462.1,491.8,466,493.8,471.6z"/>
<path class="st1" d="M76.3,466.2c-2.5-0.5-5.1-0.2-7.4,0.8c-2.8,1.3-6.1,1.3-8.9,0c-3.4-1.5-7.2-1.4-10.5,0.2c-0.9,0.5-2,0.7-3,0.8
	c-4.3,0-7.8-4.3-8.5-9.9c0.8-0.6,1.6-1.4,2.1-2.3c2.5-4,6.4-6.6,10.7-6.6s8.1,2.5,10.6,6.5c1.5,2.4,4.2,3.9,7.1,3.9h0.1
	C71.9,459.6,74.8,462.3,76.3,466.2z"/>
<path class="st1" d="M-45.4,544.6c2.5-0.5,5.1-0.2,7.4,0.8c2.8,1.3,6.1,1.3,8.9,0c3.4-1.5,7.2-1.4,10.5,0.2c0.9,0.5,2,0.8,3,0.8
	c4.3,0,7.8-4.3,8.5-9.9c-0.8-0.6-1.6-1.4-2.1-2.3c-2.5-4-6.4-6.6-10.7-6.6s-8.1,2.5-10.6,6.5c-1.5,2.4-4.2,3.9-7.1,3.9h-0.1
	C-41.1,538-44,540.7-45.4,544.6z"/>
<path class="st2" d="M-140.8,813.5c2.6-4.8-0.3-10.8-3.8-15.1s-7.6-8.8-7.5-14.3c0.1-7.9,8.5-12.6,15.2-16.7c5-3.1,9.6-6.8,13.7-11
	c1.7-1.6,3.1-3.5,4.2-5.6c1.4-3.1,1.3-6.6,1.3-10c-0.3-11.3-0.8-22.5-1.7-33.8"/>
<path class="st0" d="M-106.7,706.5c-0.2-4.2-2.5-8-6.2-10.1l-2.8,5.5l0.1-6.6c-6.5-1.9-13.4,1.8-15.3,8.3
	c-1.9,6.5,1.8,13.4,8.3,15.3c6.5,1.9,13.4-1.8,15.3-8.3C-106.8,709.2-106.6,707.9-106.7,706.5z"/>
<path class="st0" d="M-128.7,789.8c-3.1,6-10.5,8.4-16.6,5.3c-3.9-2-6.4-5.9-6.7-10.3c-0.1-1.7,0.2-3.4,0.8-5c2.5-6.3,9.6-9.5,16-7
	c3.2,1.3,5.8,3.9,7,7.1l-7.7,6.3l8.5-2C-127.3,786.2-127.8,788.1-128.7,789.8z"/>
<path class="st0" d="M-134.7,765.9c-6.8,0.3-12.6-4.9-12.9-11.7c-0.3-5.7,3.5-10.9,9-12.4l-0.1,5.1l2.8-5.5l0,0
	c6.8-0.3,12.6,4.9,12.9,11.7S-128,765.6-134.7,765.9L-134.7,765.9z"/>
<path class="st0" d="M-104.9,746c-6.8,0.4-12.6-4.9-12.9-11.7c-0.4-6.8,4.9-12.6,11.7-12.9c2.3-0.1,4.7,0.4,6.7,1.6l-2.2,6l4.4-4.4
	c5,4.6,5.3,12.4,0.8,17.4C-98.6,744.4-101.7,745.9-104.9,746L-104.9,746z"/>
<path class="st3" d="M-108.4,709.8c-2.8,0.3-5.6,1.2-8.5,1.4s-6-0.5-7.8-2.7c-0.8-1.3-1.6-2.6-2.3-4c-0.8-1.2-1.8-2.2-3.1-2.9
	c-3.1,6.1-0.7,13.5,5.4,16.6c6.1,3.1,13.5,0.7,16.6-5.4c0.5-1,0.8-2,1.1-3C-107.4,709.7-107.9,709.7-108.4,709.8z"/>
<path class="st3" d="M-104.9,746c-6.8,0.3-12.6-4.9-12.9-11.7c-0.1-2,0.3-4,1.2-5.8c1,0.7,1.8,1.5,2.5,2.5c0.7,1.4,1.6,2.8,2.4,4.1
	c1.9,2.3,5.2,3,8.2,2.8s5.8-1,8.8-1.3c0.4,0,0.8-0.1,1.2-0.1C-94.7,741.9-99.4,745.8-104.9,746z"/>
<path class="st3" d="M-134.7,765.9c-6.8,0.3-12.6-4.9-12.9-11.7c-0.1-1.9,0.3-3.8,1.1-5.6c1,0.7,1.9,1.5,2.6,2.5
	c0.8,1.4,1.7,2.8,2.7,4.2c2.1,2.3,5.6,3.1,8.7,3s6-0.8,9-1C-125.1,762.2-129.6,765.7-134.7,765.9z"/>
<path class="st3" d="M-128.7,789.8c-3.1,6-10.5,8.4-16.6,5.3c-3.9-2-6.4-5.9-6.7-10.3c-0.1-1.7,0.2-3.4,0.8-5c1,0.7,1.9,1.5,2.7,2.4
	c1.2,1.4,1.9,3,3.3,4.4c2.5,2.5,6.6,3.5,10.2,3.6C-132.8,790.2-130.7,790.1-128.7,789.8z"/>
<path class="st2" d="M-260.7,779.5c2.6-4.8-0.4-10.8-3.8-15.1s-7.6-8.8-7.5-14.3c0.1-7.9,8.5-12.6,15.2-16.7c5-3.1,9.6-6.8,13.7-11
	c1.7-1.6,3.1-3.5,4.2-5.6c1.4-3.1,1.4-6.6,1.3-10c-0.3-11.3-0.9-22.5-1.7-33.8"/>
<path class="st0" d="M-226.6,672.5c-0.2-4.2-2.5-8-6.1-10.1l-2.8,5.5l0.1-6.6c-6.5-1.9-13.4,1.8-15.3,8.3
	c-1.9,6.5,1.8,13.4,8.3,15.3s13.4-1.8,15.3-8.3C-226.7,675.2-226.5,673.8-226.6,672.5L-226.6,672.5z"/>
<path class="st0" d="M-248.5,755.8c-3.1,6-10.5,8.4-16.6,5.3c-3.9-2-6.4-5.9-6.7-10.3c-0.1-1.7,0.2-3.4,0.8-5c2.5-6.3,9.6-9.5,16-7
	c3.2,1.3,5.8,3.9,7,7.1l-7.7,6.3l8.5-2C-247.2,752.1-247.6,754.1-248.5,755.8z"/>
<path class="st0" d="M-254.6,731.9c-6.8,0.3-12.6-4.9-12.9-11.7c-0.3-5.7,3.5-10.9,9-12.4l-0.1,5.1l2.8-5.5l0,0
	c6.8-0.3,12.6,4.9,12.9,11.7S-247.8,731.6-254.6,731.9L-254.6,731.9z"/>
<path class="st0" d="M-224.7,712c-6.8,0.4-12.6-4.9-12.9-11.7s4.9-12.6,11.7-12.9c2.3-0.1,4.7,0.4,6.7,1.6l-2.2,6l4.4-4.4
	c5,4.6,5.3,12.4,0.8,17.4C-218.4,710.4-221.5,711.8-224.7,712L-224.7,712z"/>
<path class="st3" d="M-228.2,675.8c-2.8,0.3-5.6,1.2-8.5,1.4s-6-0.5-7.8-2.7c-0.8-1.3-1.6-2.6-2.3-4c-0.8-1.2-1.8-2.2-3.1-2.9
	c-3.1,6.1-0.7,13.5,5.4,16.6c6.1,3.1,13.5,0.7,16.6-5.4c0.5-1,0.8-2,1.1-3C-227.3,675.7-227.8,675.7-228.2,675.8z"/>
<path class="st3" d="M-224.7,712c-6.8,0.3-12.6-4.9-12.9-11.7c-0.1-2,0.3-4,1.2-5.8c1,0.7,1.8,1.5,2.5,2.5c0.7,1.4,1.6,2.8,2.4,4.1
	c1.9,2.3,5.2,3,8.2,2.9s5.8-1,8.8-1.3c0.4,0,0.8-0.1,1.2-0.1C-214.5,707.9-219.2,711.8-224.7,712z"/>
<path class="st3" d="M-254.6,731.9c-6.8,0.3-12.6-4.9-12.9-11.7c-0.1-1.9,0.3-3.8,1.1-5.6c1,0.7,1.9,1.5,2.6,2.5
	c0.8,1.4,1.7,2.8,2.7,4.2c2.1,2.3,5.6,3.1,8.7,3c3.1-0.1,6-0.8,9-1C-244.9,728.2-249.4,731.6-254.6,731.9z"/>
<path class="st3" d="M-248.5,755.8c-3.1,6-10.5,8.4-16.6,5.3c-3.9-2-6.4-5.9-6.7-10.3c-0.1-1.7,0.2-3.4,0.8-5c1,0.7,1.9,1.5,2.7,2.4
	c1.2,1.4,1.9,3,3.3,4.4c2.5,2.5,6.6,3.5,10.2,3.6C-252.7,756.2-250.6,756-248.5,755.8z"/>
<path class="st2" d="M145.5,697.2c-2.6-4.8,0.3-10.8,3.8-15.1c3.4-4.3,7.5-8.8,7.5-14.3c-0.1-7.9-8.5-12.6-15.2-16.7
	c-5-3.1-9.5-6.8-13.6-11c-1.7-1.6-3.1-3.5-4.2-5.6c-1.4-3.1-1.3-6.6-1.3-10c0.3-11.3,0.9-22.5,1.7-33.8"/>
<path class="st0" d="M111.4,590.1c0.2-4.2,2.5-8,6.1-10.1l2.8,5.4l-0.1-6.6c1.3-0.4,2.7-0.5,4-0.5c6.8,0.3,12,6.1,11.7,12.9
	c-0.3,6.8-6.1,12-12.9,11.7C116.3,602.7,111.1,596.9,111.4,590.1L111.4,590.1z"/>
<path class="st0" d="M133.3,673.4c3.1,6,10.5,8.4,16.6,5.3s8.4-10.5,5.3-16.6c-3.1-6-10.5-8.4-16.6-5.3c-2.7,1.4-4.8,3.8-5.9,6.7
	l7.7,6.3l-8.5-2C132,669.8,132.4,671.7,133.3,673.4z"/>
<path class="st0" d="M139.4,649.5c6.8,0.3,12.6-4.9,12.9-11.7c0.3-5.7-3.4-10.9-9-12.4l0.1,5.1l-2.8-5.5l0,0
	c-6.8-0.3-12.6,4.9-12.9,11.7c-0.1,1.4,0.1,2.8,0.5,4.2C129.7,645.8,134.2,649.3,139.4,649.5z"/>
<path class="st0" d="M109.5,629.6c6.8,0.3,12.6-4.9,12.9-11.7s-4.9-12.6-11.7-12.9c-2.3-0.1-4.7,0.4-6.7,1.6l2.2,6l-4.5-4.3
	c-2.4,2.2-3.9,5.2-4,8.5c-0.1,1.1,0,2.3,0.3,3.4C99.4,625.6,104.1,629.4,109.5,629.6z"/>
<path class="st3" d="M113,593.4c2.8,0.3,5.6,1.2,8.5,1.4c2.9,0.2,6-0.5,7.8-2.7c0.8-1.3,1.6-2.6,2.3-4c0.8-1.2,1.8-2.2,3.1-2.9
	c3.1,6.1,0.7,13.5-5.4,16.6s-13.5,0.7-16.6-5.4c-0.5-1-0.9-2-1.1-3C112.1,593.3,112.6,593.3,113,593.4z"/>
<path class="st3" d="M109.5,629.6c6.8,0.3,12.6-4.9,12.9-11.7c0.1-2-0.3-4-1.2-5.8c-1,0.7-1.8,1.5-2.5,2.5c-0.7,1.4-1.6,2.8-2.4,4.1
	c-1.9,2.3-5.2,3-8.2,2.9s-5.8-1-8.8-1.3c-0.4,0-0.8-0.1-1.2-0.1C99.4,625.5,104,629.4,109.5,629.6z"/>
<path class="st3" d="M139.4,649.5c6.8,0.3,12.6-4.9,12.9-11.7c0.1-1.9-0.3-3.9-1.1-5.6c-1,0.7-1.9,1.5-2.6,2.5
	c-0.8,1.4-1.7,2.8-2.7,4.1c-2.1,2.3-5.6,3.1-8.7,3s-6-0.8-9-1C129.8,645.8,134.2,649.3,139.4,649.5z"/>
<path class="st3" d="M133.3,673.4c3.1,6,10.6,8.4,16.6,5.3c5.5-2.9,8-9.4,5.9-15.3c-1,0.7-1.9,1.5-2.7,2.4c-1.2,1.4-2,3-3.3,4.4
	c-2.5,2.5-6.6,3.5-10.2,3.6C137.5,673.8,135.4,673.7,133.3,673.4z"/>
<circle class="st4" cx="464.7" cy="599.4" r="100"/>
<path class="st0" d="M507.6,625.2c-3.5-3.5-11.8-8.7-16-10.7c-4.8-2.3-6.5-2.3-9.9,0.2c-2.8,2-4.7,3.9-7.9,3.2s-9.7-5.5-15.9-11.7
	s-11-12.6-11.7-15.9c-0.7-3.3,1.2-5.1,3.2-7.9c2.4-3.4,2.5-5.1,0.2-9.9c-2-4.2-7.2-12.5-10.7-16s-4.3-2.7-6.2-2
	c-2,0.8-3.9,1.8-5.7,3c-3.5,2.3-5.4,4.3-6.8,7.2s-2.9,8.3,5,22.5c5.9,10.9,13.3,20.8,22.1,29.5l0,0l0,0c8.7,8.8,18.7,16.3,29.6,22.1
	c14.2,8,19.6,6.4,22.5,5s4.9-3.3,7.2-6.8c1.2-1.8,2.2-3.7,3-5.7C510.4,629.5,511.2,628.7,507.6,625.2z"/>
<path class="st3" d="M464.7,499.5c-55.2,0-100,44.7-100,100c0,55.2,44.7,100,100,100c55.2,0,100-44.7,100-100c0,0,0-0.1,0-0.1
	C564.7,544.3,519.9,499.5,464.7,499.5z M464.7,686.1c-47.9,0-86.7-38.8-86.7-86.7c0-47.9,38.8-86.7,86.7-86.7
	c47.9,0,86.7,38.8,86.7,86.7v0C551.4,647.3,512.6,686.1,464.7,686.1L464.7,686.1L464.7,686.1z"/>
<circle class="st4" cx="235.1" cy="751.3" r="100"/>
<path class="st0" d="M291.9,721.1L262,751.5c-0.2,0.2-0.2,0.5,0,0.8c0,0,0,0,0,0l21,22.3c1.4,1.4,1.4,3.7,0,5.1
	c-0.7,0.7-1.6,1-2.5,1.1c-1,0-1.9-0.4-2.6-1.1L257,757.5c-0.2-0.2-0.6-0.2-0.8,0l-5.1,5.1c-4.2,4.3-10,6.7-16,6.7
	c-6.1,0-12-2.5-16.3-6.9l-4.9-5c-0.2-0.2-0.6-0.2-0.8,0l-20.8,22.2c-1.4,1.4-3.7,1.4-5.1,0c0,0,0,0,0,0c-1.4-1.4-1.4-3.7,0-5.1
	c0,0,0,0,0,0l20.9-22.3c0.2-0.2,0.2-0.6,0-0.8L178.2,721c-0.2-0.2-0.6-0.2-0.8,0c-0.1,0.1-0.2,0.2-0.2,0.4v60.9c0,4.9,4,8.9,8.9,8.9
	H284c4.9,0,8.9-4,8.9-8.9v-60.9c0-0.3-0.2-0.6-0.5-0.6C292.2,720.9,292,720.9,291.9,721.1z"/>
<path class="st0" d="M235.1,762.1c4.1,0,8-1.6,10.9-4.5l43.6-44.4c-1.5-1.3-3.5-2-5.5-2h-97.9c-2,0-4,0.7-5.5,2l43.6,44.4
	C227.1,760.5,231,762.2,235.1,762.1z"/>
<path class="st3" d="M233.8,651.3c-55.2,0-100,44.7-100,100c0,55.2,44.7,100,99.9,100c55.2,0,100-44.7,100-100c0,0,0-0.1,0-0.1
	C333.7,696.1,289,651.3,233.8,651.3z M233.8,837.9c-47.9,0-86.7-38.8-86.7-86.7c0-47.9,38.8-86.7,86.7-86.7
	c47.9,0,86.7,38.8,86.7,86.7l0,0C320.5,799.1,281.7,837.9,233.8,837.9z"/>
<circle class="st4" cx="-2.1" cy="676.6" r="100"/>
<path class="st0" d="M-2.1,628.8L-42,720.7l3.7,3.7l36.1-15.9L34,724.5l3.7-3.7L-2.1,628.8z"/>
<path class="st3" d="M-2.1,576.6c-55.2,0-100,44.7-100.1,99.9c0,55.2,44.7,100,99.9,100.1c55.2,0,100-44.7,100.1-99.9c0,0,0,0,0-0.1
	C97.8,621.4,53.1,576.7-2.1,576.6z M-2.1,763.3c-47.9,0-86.7-38.8-86.7-86.7s38.8-86.7,86.7-86.7s86.7,38.8,86.7,86.7c0,0,0,0,0,0
	C84.5,724.5,45.7,763.3-2.1,763.3L-2.1,763.3z"/>
<path class="st3" d="M473.9,928.3c0,0.8-1.6,2.8-1.6,2.8c-3.2,0.4-6.4,0-9.4-1.2c-0.8-0.4,0.4-2.8,0.4-2.8l0.1-0.2
	c2.7,1.2,5.6,1.8,8.6,1.8l1.8-1.8C473.8,927.5,473.9,928.1,473.9,928.3z"/>
<path class="st2" d="M521.4,775.6c2.6-4.8-0.3-10.8-3.8-15.1s-7.5-8.8-7.5-14.3c0.1-7.9,8.5-12.5,15.2-16.7c5-3.1,9.5-6.8,13.6-11
	c1.7-1.6,3.1-3.5,4.2-5.6c1.4-3.1,1.3-6.6,1.3-10c-0.3-11.3-0.8-22.5-1.7-33.8"/>
<path class="st0" d="M555.5,668.6c-0.2-4.2-2.5-8-6.1-10.1l-2.8,5.5l0.1-6.6c-1.3-0.4-2.7-0.6-4-0.5c-6.8,0.3-12,6.1-11.7,12.9
	c0.3,6.8,6.1,12,12.9,11.7C550.6,681.1,555.8,675.4,555.5,668.6C555.5,668.6,555.5,668.6,555.5,668.6L555.5,668.6z"/>
<path class="st0" d="M533.6,751.9c-3.1,6-10.5,8.4-16.6,5.3s-8.4-10.5-5.3-16.6c3.1-6,10.5-8.4,16.6-5.3c2.7,1.4,4.8,3.8,5.9,6.7
	l-7.7,6.3l8.5-2C534.9,748.2,534.5,750.1,533.6,751.9z"/>
<path class="st0" d="M527.5,728c-6.8,0.3-12.6-4.9-12.9-11.7c-0.3-5.7,3.4-10.9,9-12.4l-0.1,5.1l2.8-5.5l0,0
	c6.8-0.3,12.6,4.9,12.9,11.7C539.5,721.9,534.3,727.7,527.5,728C527.5,728,527.5,728,527.5,728L527.5,728z"/>
<path class="st0" d="M557.4,708.1c-6.8,0.3-12.6-4.9-12.9-11.7c-0.3-6.8,4.9-12.6,11.7-12.9c2.3-0.1,4.7,0.4,6.7,1.6l-2.2,6l4.5-4.3
	c2.4,2.2,3.9,5.2,4,8.5c0.1,1.1,0,2.3-0.3,3.4C567.5,704,562.9,707.9,557.4,708.1z"/>
<path class="st3" d="M553.9,671.8c-2.8,0.3-5.6,1.2-8.5,1.4c-2.9,0.2-6-0.5-7.8-2.7c-0.8-1.3-1.6-2.6-2.3-4
	c-0.8-1.2-1.8-2.2-3.1-2.9c-3.1,6.1-0.7,13.5,5.4,16.6c6.1,3.1,13.5,0.7,16.6-5.4c0.5-1,0.9-2,1.1-3
	C554.8,671.8,554.3,671.8,553.9,671.8z"/>
<path class="st3" d="M557.4,708.1c-6.8,0.3-12.6-4.9-12.9-11.7c-0.1-2,0.3-4,1.2-5.8c1,0.7,1.8,1.5,2.5,2.5c0.7,1.4,1.5,2.8,2.4,4.1
	c1.9,2.3,5.2,3,8.2,2.9s5.8-1,8.8-1.3c0.4,0,0.8-0.1,1.2-0.1C567.5,704,562.9,707.8,557.4,708.1z"/>
<path class="st3" d="M527.5,728c-6.8,0.3-12.6-4.9-12.9-11.7c-0.1-1.9,0.3-3.9,1.1-5.7c1,0.7,1.9,1.5,2.6,2.5c1,1.3,1.5,2.9,2.7,4.2
	c2.1,2.3,5.6,3.1,8.7,3.1s6-0.8,9-1C537.1,724.3,532.7,727.7,527.5,728z"/>
<path class="st3" d="M533.6,751.9c-3.2,6-10.7,8.3-16.7,5.1c-5.4-2.9-7.9-9.3-5.8-15.1c1,0.7,1.9,1.5,2.7,2.4c1.2,1.4,2,3,3.3,4.4
	c2.5,2.5,6.6,3.5,10.2,3.6C529.4,752.3,531.5,752.1,533.6,751.9z"/>
<linearGradient id="SVGID_1_" gradientUnits="userSpaceOnUse" x1="147.9624" y1="276.5672" x2="147.9624" y2="377.5572" gradientTransform="matrix(1 0 0 -1 -52 1135.89)">
	<stop  offset="0" style="stop-color:#808080;stop-opacity:0.25"/>
	<stop  offset="0.54" style="stop-color:#808080;stop-opacity:0.12"/>
	<stop  offset="1" style="stop-color:#808080;stop-opacity:0.1"/>
</linearGradient>
<path class="st5" d="M163,786.5c0-3.1-1.4-6-3.9-7.9c0-5.6-4.1-10.4-9.6-11.3c-0.8-4-3.8-7.3-7.6-8.5l0,0c-0.5-0.1-0.9-0.3-1.4-0.3
	h-0.1H140h-0.2h-0.2h-0.3h-0.6c-5.5,0.1-10.1,4.2-10.9,9.6c-3.5-0.8-6.7,0.2-7.3,2.5c-0.1,0.6-0.1,1.2,0.1,1.8
	c0.6,1.7,2.5,3.4,5.2,4.2l0.3,0.1l0.5,0.1h0.1l0,0c-0.6,1.2-0.8,2.5-0.8,3.8c0,3.3,1.8,6.3,4.7,7.8l-0.2,0.1
	c-0.3,0.3-0.6,0.7-0.8,1.1c-0.6,1.1-1.1,2.3-1.5,3.5c-0.3,1.1-0.3,2.2-0.6,3.2c-0.6,1.9-2.1,3.6-2.2,5.6c-0.1,0.9,0.1,2-0.6,2.6
	c-0.2,0.1-0.3,0.3-0.5,0.4c-0.4,0.3-0.8,0.7-1.1,1.2c-0.2,0.4-0.5,0.8-0.8,1.1c-0.6,0.4-1.5,0.4-1.8,1.1s0.5,1.5,0.3,2.2
	s-0.8,0.9-1.2,1.3c-0.5,0.6-0.9,1.3-1.1,2c-1.9,0.4-3.9-0.1-5.4-1.4c0.3,0.6,0.4,1.3,0.6,2c-0.9-0.7-1.9-1.2-2.9-1.5
	c-1.2-0.5-2.2-1.3-3.1-2.3l1.7-0.2L102,799l-2.2-0.5l1.9,3.7c-0.3,0.1-0.6,0.4-0.7,0.8c-0.1,0.4-0.1,0.8-0.1,1.3c0.1,1,0.3,2,0.5,3
	l0.6,2.6c0,0.2,0.1,0.5,0.2,0.7c-0.7,0-1.5,0-2.2,0.2c-1.5-0.5-3-0.9-4.5-1.1c-0.3-0.1-0.7-0.1-1,0c-0.4,0.2-0.7,0.4-1,0.8
	c-1.3,1.5-2.4,3-3.4,4.7c-4,6.9-9.2,12.8-14.1,19c-3.4,1.4-6.8,2.7-10.3,4l-7.4,2.8c-1.4,0.7-3,1-4.6,1c-0.7,0-1.6-0.2-2,0.5
	c-0.2,0.3-0.3,0.6-0.5,1l-0.8,0.1l0,0c-0.3-1.2-1-2.3-1.8-3.3c-0.4,0.1-0.7,0.3-0.8,0.6c-0.2,0.3-0.3,0.7-0.5,1
	c-0.4,0.6-1.1,0.9-1.6,1.3s-0.8,1.3-1.3,1.8c-0.7,0.5-1.6,0.9-2.5,1c-1.4,0.3-2.7,0.8-3.9,1.5c-0.5,0.3-0.9,0.5-1.5,0.7
	c-0.6,0.1-1.1,0.1-1.7,0.1l-3.9-0.3c-0.4,0-0.7,0-1,0c-0.8,0.3-1.3,1.1-1.2,2c0.1,0.9,0.5,1.6,1.2,2.2c0.7,0.5,1.4,0.9,2.2,1.2
	c3.4,1.3,6.9,2.3,10.4,3.1v0.8c2.5,1.3,5.2,1.9,8,1.9c0.2,0,0.4,0,0.6-0.1c0.3-0.2,0.4-0.5,0.5-0.8c0.8-2.5,1.4-5.1,1.6-7.7l0,0
	c0.5,0,1-0.2,1.4-0.4c1.3-0.4,2.7,0.5,4.1,0.7c1.7,0.2,3.3-0.8,4.9-1.4l0.7-0.2c-0.5,0.6-1,1.1-1.6,1.5c-0.7,0.5-1.4,0.8-2.1,1.3
	c-0.6,0.5-1.1,1-1.8,1.4c-0.4,0.2-0.9,0.4-1.4,0.5c-0.7,0.3-1.3,0.6-1.9,1c-0.5,0.3-1,0.8-1.3,1.3c-0.3,0.5-0.4,1.2-0.1,1.8
	c0.3,0.5,0.8,0.8,1.3,0.9c0.5,0.1,1.1,0.1,1.6,0c2.1-0.2,4.2-0.3,6.3-0.5c0.9-0.1,1.8-0.2,2.6-0.4c0.5-0.1,0.9-0.3,1.4-0.4
	c0.8-0.2,1.6-0.3,2.4-0.4c0.2,0,0.5,0,0.7,0.1c0.5,0.2,0.8,0.7,1.3,0.8c0.3,0,0.7,0,1-0.1c1.5-0.3,3.1-0.5,4.7-0.5
	c0.7,0,1.5-0.2,1.8-0.8s-0.3-1.7-0.5-2.5c-0.1-0.5-0.2-1.1-0.2-1.7c-0.1-1.4-0.5-2.7-1.2-3.9c-0.3-0.6-0.6-1.2-0.9-1.8
	c3-1.1,5.9-2.6,8.6-4.4c1.5-1.1,3.2-1.9,4.9-2.4c2.1-0.2,4.2,0,6.2,0.7c4.8,1.4,9.5,3,14.2,4.9c2.2,0.9,4.4,1.9,6.7,2.6
	c0.7,0.9,1.5,1.7,2.4,2.3c1.6,0.9,3.3,1.4,5.1,1.4c2.4,0.2,4.8,0.3,7.3,0.3c1.9,0.1,3.7-0.3,5.4-1c0.4-0.2,0.8-0.5,1.1-0.8
	c1.3,0.1,2.6-0.4,3.6-1.3c1.3-1.1,2.3-2.6,2.7-4.3c0.6-2.3,0.1-5,1.5-6.8c0.4-0.5,0.9-0.9,1.2-1.4c0.4-0.7,0.7-1.5,0.6-2.3
	c0,0,0-0.1,0.1-0.1c0.3-0.7,0.5-1.5,0.6-2.3c0.2-0.6,0.4-1.2,0.7-1.8c0.7-1.8,1.3-3.6,1.9-5.4c0.4-1.2,0.6-2.5,0.9-3.7
	c0.2-1,0.2-2,0.3-3c0.1-1.6,0.4-3.1,0.9-4.6c1.3-3.6,2-7.3,2.1-11.1v-0.2c3.8-0.4,6.7-3.7,6.6-7.6c0-1.1-0.2-2.2-0.7-3.2
	C162.5,790,163,788.3,163,786.5z M127.2,830c0.1,0.4,0.2,0.8,0.4,1.2c-0.6-0.6-1.2-1.2-1.8-1.7c0.2,0.1,0.5,0.2,0.7,0.2
	C126.8,829.8,127,829.9,127.2,830L127.2,830z M124.4,828.1c-3.5-3-7.5-5.3-11-8.2c1.9,1,3.8,2.1,5.7,3.1c2.2,1.3,4.4,2.5,6.7,3.6
	C125.4,827.2,124.9,827.7,124.4,828.1L124.4,828.1z M125.9,820.5l0.2-0.2c0,0.4,0,0.8,0,1.2l-0.9-0.3
	C125.4,821,125.6,820.8,125.9,820.5L125.9,820.5z M95.4,828.6c1.4-1.6,2.7-3.4,3.7-5.3c1.4,2.4,3.6,4.1,5.5,6.1
	C101.5,829.1,98.5,828.8,95.4,828.6z"/>
<polygon class="st6" points="100.4,799.5 102.5,800 110,810.9 106.7,811.4 "/>
<path class="st7" d="M47.5,844.1c0.6,1.9,1.3,3.8,2.2,5.7c2.5-0.5,4.9-1.2,7.3-2.1c-0.5-0.7-1-1.4-1.5-2c-0.6-0.6-1.3-1.2-2-1.6
	c-0.8-0.2-1.7-0.2-2.5,0C49.8,844.1,48.6,844.1,47.5,844.1z"/>
<path class="st6" d="M53.4,847c-1.2-0.5-2.1-1.6-2.5-2.8c-0.4-1.2-1-2.4-1.9-3.4c-0.4,0.1-0.7,0.3-0.8,0.6c-0.2,0.3-0.3,0.7-0.5,1
	c-0.4,0.6-1.1,0.8-1.6,1.3s-0.8,1.2-1.3,1.7c-0.7,0.5-1.6,0.9-2.5,1c-1.4,0.3-2.7,0.8-4,1.5c-0.5,0.3-1,0.5-1.5,0.7
	c-0.6,0.1-1.1,0.1-1.7,0l-3.9-0.3c-0.3-0.1-0.7-0.1-1,0c-0.8,0.3-1.3,1.1-1.3,2c0.1,0.9,0.5,1.6,1.3,2.1c0.7,0.5,1.4,0.9,2.2,1.1
	c3.4,1.3,7,2.3,10.6,3v0.8c2.5,1.2,5.3,1.9,8,1.9c0.2,0,0.4,0,0.6-0.1c0.3-0.2,0.4-0.5,0.5-0.8c0.9-2.8,1.5-5.6,1.6-8.6
	c0.1-0.7,0-1.5-0.2-2.2C53.3,846.9,54,847.2,53.4,847"/>
<path class="st6" d="M128.9,832.2c-11.7,0.7-23.2-2.7-34.9-3.1c-1.5-0.1-2.9,0-4.3,0.3c-1.5,0.4-2.9,1-4.3,1.7
	c-6.3,2.9-12.8,5.3-19.2,7.8l-7.5,2.8c-1.4,0.7-3,1-4.6,1c-0.7,0-1.6-0.2-2,0.4c-1.2,1.8-0.6,4.4,0.2,6.5c0.3,0.7,0.7,1.4,1.4,1.4
	c0.5,0,1-0.2,1.4-0.4c1.4-0.4,2.7,0.5,4.1,0.7c1.7,0.2,3.3-0.8,5-1.4c2.7-1,5.6-1,8.5-1.4c4.8-0.8,9.2-3,13.3-5.5
	c1.5-1.1,3.2-1.9,5-2.3c2.1-0.2,4.2,0,6.2,0.7c4.8,1.4,9.6,3,14.3,4.9c2.4,1.1,4.9,2,7.5,2.7c5.5,1.4,11.4,1.1,16.7-1
	c1.9-0.7,3.9-2,4-4.1c0.1-1.2-0.8-2.2-1.4-3.2c-0.4-0.6-0.8-1.3-1.2-1.9C134.9,835.8,132.5,832,128.9,832.2z"/>
<path class="st3" d="M128.9,832.2c-11.7,0.7-23.2-2.7-34.9-3.1c-1.5-0.1-2.9,0-4.3,0.3c-1.5,0.4-2.9,1-4.3,1.7
	c-6.3,2.9-12.8,5.3-19.2,7.8l-7.5,2.8c-1.4,0.7-3,1-4.6,1c-0.7,0-1.6-0.2-2,0.4c-1.2,1.8-0.6,4.4,0.2,6.5c0.3,0.7,0.7,1.4,1.4,1.4
	c0.5,0,1-0.2,1.4-0.4c1.4-0.4,2.7,0.5,4.1,0.7c1.7,0.2,3.3-0.8,5-1.4c2.7-1,5.6-1,8.5-1.4c4.8-0.8,9.2-3,13.3-5.5
	c1.5-1.1,3.2-1.9,5-2.3c2.1-0.2,4.2,0,6.2,0.7c4.8,1.4,9.6,3,14.3,4.9c2.4,1.1,4.9,2,7.5,2.7c5.5,1.4,11.4,1.1,16.7-1
	c1.9-0.7,3.9-2,4-4.1c0.1-1.2-0.8-2.2-1.4-3.2c-0.4-0.6-0.8-1.3-1.2-1.9C134.9,835.8,132.5,832,128.9,832.2z"/>
<path class="st7" d="M69.9,844.6c1.8,0.6,3.7,1.2,5.5,1.7c1-1.7,3-2.9,3.4-4.9c0-0.1,0-0.2,0-0.3c0-0.1-0.1-0.1-0.2-0.2
	c-1.3-0.7-2.8-1.2-4.3-1.3c-1.2-0.1-1.8,1.2-2.3,2.1C71.8,842.2,70.4,844.8,69.9,844.6z"/>
<path class="st6" d="M72.5,843.4c-1.1-0.2-2.1-0.8-2.7-1.8c-0.3-0.5-0.5-1.1-1-1s-0.7,0.6-0.8,1.1c-0.3,1.8-0.9,3.5-1.5,5.2
	c-0.7,1.7-1.8,3.2-3.2,4.3c-0.7,0.5-1.4,0.8-2.1,1.3c-0.6,0.5-1.1,0.9-1.8,1.3c-0.4,0.2-0.9,0.4-1.4,0.5c-0.7,0.3-1.3,0.6-1.9,1
	c-0.5,0.3-1,0.7-1.3,1.3c-0.3,0.5-0.4,1.2-0.1,1.8c0.3,0.5,0.8,0.8,1.3,0.9c0.5,0.1,1.1,0.1,1.6,0c2.1-0.2,4.3-0.3,6.4-0.5
	c0.9-0.1,1.8-0.2,2.7-0.4L68,858c0.8-0.2,1.6-0.3,2.4-0.4c0.2,0,0.5,0,0.7,0.1c0.5,0.2,0.8,0.7,1.4,0.8c0.3,0,0.7,0,1-0.1
	c1.6-0.3,3.1-0.5,4.7-0.5c0.7,0,1.5-0.2,1.8-0.8c0.4-0.8-0.3-1.7-0.5-2.5c-0.1-0.5-0.2-1.1-0.2-1.6c-0.1-1.4-0.5-2.7-1.2-3.9
	c-0.5-1-1.3-2.1-0.9-3.2c0.2-0.3,0.3-0.7,0.4-1.1C77.4,843,73.5,843.6,72.5,843.4z"/>
<path class="st7" d="M111.4,813.4c-2.1-0.9-3.7-2.6-4.7-4.6c-0.2-0.4-0.4-0.9-0.5-1.3c-0.6-1.5-1.6-2.8-2.8-3.9
	c-0.3-0.3-0.6-0.4-1-0.4c-0.4,0.1-0.7,0.4-0.8,0.8c-0.1,0.4-0.1,0.8-0.1,1.3c0.1,1,0.3,2,0.5,2.9l0.6,2.6c0.1,0.4,0.2,0.8,0.4,1.2
	c0.2,0.4,0.6,0.8,1,1.1c0.5,0.5,1,0.9,1.6,1.4c0.3,0.3,0.6,0.5,1,0.7c0.6,0.3,1.2,0.4,1.8,0.5c2.4,0.3,4.7,1.2,6.6,2.6
	c0,0,0-1.7,0-1.9c0-0.5-0.2-1-0.5-1.4C113.6,814.2,112.5,813.7,111.4,813.4z"/>
<path class="st3" d="M111.4,813.4c-2.1-0.9-3.7-2.6-4.7-4.6c-0.2-0.4-0.4-0.9-0.5-1.3c-0.6-1.5-1.6-2.8-2.8-3.9
	c-0.3-0.3-0.6-0.4-1-0.4c-0.4,0.1-0.7,0.4-0.8,0.8c-0.1,0.4-0.1,0.8-0.1,1.3c0.1,1,0.3,2,0.5,2.9l0.6,2.6c0.1,0.4,0.2,0.8,0.4,1.2
	c0.2,0.4,0.6,0.8,1,1.1c0.5,0.5,1,0.9,1.6,1.4c0.3,0.3,0.6,0.5,1,0.7c0.6,0.3,1.2,0.4,1.8,0.5c2.4,0.3,4.7,1.2,6.6,2.6
	c0,0,0-1.7,0-1.9c0-0.5-0.2-1-0.5-1.4C113.6,814.2,112.5,813.7,111.4,813.4z"/>
<ellipse class="st6" cx="135.2" cy="790.8" rx="2.8" ry="2.9"/>
<path class="st6" d="M133.4,789.1c-0.8-0.2-1.6-0.1-2.2,0.3c-0.3,0.3-0.6,0.6-0.8,1c-0.6,1.1-1.1,2.3-1.5,3.5
	c-0.3,1-0.3,2.1-0.6,3.2c-0.6,1.9-2.1,3.5-2.2,5.5c-0.1,0.9,0.1,1.9-0.6,2.5c-0.2,0.1-0.3,0.3-0.5,0.4c-0.5,0.3-0.8,0.7-1.1,1.2
	c-0.2,0.4-0.5,0.8-0.8,1.1c-0.6,0.4-1.5,0.4-1.8,1s0.5,1.4,0.3,2.2s-0.8,0.9-1.3,1.3c-0.5,0.6-0.9,1.2-1.1,2
	c-1.9,0.4-3.9-0.1-5.4-1.3c0.7,2,0.9,4.1,0.9,6.2c0.1,0.7-0.1,1.4-0.5,1.9c2.3,0.2,4.5,0.6,6.7,1.2c0.9,0.3,2,0.3,2.9,0
	c0.5-0.3,1-0.6,1.3-1.1c1.2-1.2,2.5-2.5,2.8-4.2c0.1-1,0.1-1.9,0-2.9c0.1-1.2,0.4-2.4,0.7-3.5c0.6-2.4,1.1-4.8,1.3-7.2
	c0.1-1.5,1.4-2.7,2.1-4c1.3-2.5,2.6-5.2,2.7-8C134.7,790.4,134.4,789.2,133.4,789.1z"/>
<path class="st3" d="M133.4,789.1c-0.8-0.2-1.6-0.1-2.2,0.3c-0.3,0.3-0.6,0.6-0.8,1c-0.6,1.1-1.1,2.3-1.5,3.5
	c-0.3,1-0.3,2.1-0.6,3.2c-0.6,1.9-2.1,3.5-2.2,5.5c-0.1,0.9,0.1,1.9-0.6,2.5c-0.2,0.1-0.3,0.3-0.5,0.4c-0.5,0.3-0.8,0.7-1.1,1.2
	c-0.2,0.4-0.5,0.8-0.8,1.1c-0.6,0.4-1.5,0.4-1.8,1s0.5,1.4,0.3,2.2s-0.8,0.9-1.3,1.3c-0.5,0.6-0.9,1.2-1.1,2
	c-1.9,0.4-3.9-0.1-5.4-1.3c0.7,2,0.9,4.1,0.9,6.2c0.1,0.7-0.1,1.4-0.5,1.9c2.3,0.2,4.5,0.6,6.7,1.2c0.9,0.3,2,0.3,2.9,0
	c0.5-0.3,1-0.6,1.3-1.1c1.2-1.2,2.5-2.5,2.8-4.2c0.1-1,0.1-1.9,0-2.9c0.1-1.2,0.4-2.4,0.7-3.5c0.6-2.4,1.1-4.8,1.3-7.2
	c0.1-1.5,1.4-2.7,2.1-4c1.3-2.5,2.6-5.2,2.7-8C134.7,790.4,134.4,789.2,133.4,789.1z"/>
<path class="st6" d="M130.8,834.6c-2.4-1.2-4.2-3.3-6.2-5.2c-3.8-3.5-8.3-6-12.3-9.3c-2.6-2.2-5-4.7-7.8-6.6
	c-2.5-1.6-5.4-2.6-8.4-2.9c-0.3-0.1-0.7-0.1-1,0c-0.4,0.2-0.7,0.4-1,0.8c-1.3,1.4-2.4,3-3.4,4.7c-5,8.5-12.1,15.6-18,23.5
	c-0.1,0.2-0.2,0.4-0.3,0.6c0,0.3,0.1,0.6,0.2,0.9l1.2,2.3c0.7,1.3,1.8,2.8,3.2,2.6c0.6-0.2,1.2-0.6,1.7-1.1l5.4-5.2l5.6-5.4
	c3.3-3.2,6.7-6.4,8.8-10.4c1.7,2.9,4.7,4.8,6.7,7.5c0.8,1,1.4,2.1,2.1,3.2c1.1,1.7,2.4,3.3,3.6,5l6.5,8.3c0.8,1.2,1.8,2.2,3,3
	c1.6,0.9,3.4,1.3,5.2,1.4c2.4,0.2,4.9,0.3,7.3,0.3c1.9,0.1,3.7-0.3,5.5-1c1.7-0.8,2.9-2.5,3-4.4c-0.1-1-0.4-1.9-0.9-2.7
	C138.1,840.2,135.1,836.7,130.8,834.6z"/>
<ellipse class="st8" cx="137" cy="792.8" rx="2.2" ry="2.2"/>
<path class="st7" d="M136.5,791.2c0.5,1,0.6,2.1,0.2,3.2c-0.3,1-0.8,2-1.4,2.9c-0.5,0.9-1.1,1.8-1.8,2.6c3.4,0.2,6.6-1.2,9.6-2.8
	c2.4-1.3,4.8-2.9,6.1-5.3c-0.8,0.2-1.6,0-2.2-0.4c-0.6-0.4-1.2-1-1.7-1.6l-1.7-1.9c-0.4-0.4-0.7-0.9-1-1.4c-0.4-0.7-0.5-1.4-0.5-2.2
	c-0.7,0.7-1.4,1.3-2.2,1.9c-1.2,0.8-2.5,1.4-3.8,2.1c-0.4,0.3-1.4,0.7-1.1,1.3S136.1,790.6,136.5,791.2z"/>
<path class="st3" d="M136.5,791.2c0.5,1,0.6,2.1,0.2,3.2c-0.3,1-0.8,2-1.4,2.9c-0.5,0.9-1.1,1.8-1.8,2.6c3.4,0.2,6.6-1.2,9.6-2.8
	c2.4-1.3,4.8-2.9,6.1-5.3c-0.8,0.2-1.6,0-2.2-0.4c-0.6-0.4-1.2-1-1.7-1.6l-1.7-1.9c-0.4-0.4-0.7-0.9-1-1.4c-0.4-0.7-0.5-1.4-0.5-2.2
	c-0.7,0.7-1.4,1.3-2.2,1.9c-1.2,0.8-2.5,1.4-3.8,2.1c-0.4,0.3-1.4,0.7-1.1,1.3S136.1,790.6,136.5,791.2z"/>
<path class="st8" d="M136.5,791.5c-0.7,1-0.7,2.3,0,3.3c0.1,0.1,0.5,0.9,0.6,0.9c0.1,0,0.3-0.1,0.4-0.2c0.8-0.8,1.5-1.7,2.1-2.5
	c0.7-0.9,1.6-1.5,2.7-1.8c1.3-0.1,2.7,0.4,3.7,1.2c0.5,0.2,0.9,0.6,1.3,1c0.2,0.4,0.4,0.9,0.4,1.4c0.3,3,0.5,6.1,0.4,9.1
	c0.1,2.2-0.1,4.4-0.4,6.5c-0.2,1.1-0.5,2.2-0.7,3.3c-0.1,1-0.2,2-0.1,3v4.2c0,0.8,0,1.5,0.2,2.3c0.2,0.9,0.6,1.8,0.9,2.7
	c0.3,1,0.5,2.1,0.6,3.1l0.6,4.3c0.2,1.4,0.3,2.8-0.5,4c-0.4,0.5-0.9,0.9-1.2,1.4c-1.4,1.8-1,4.5-1.5,6.7c-0.5,1.6-1.4,3.1-2.7,4.2
	c-1,0.9-2.3,1.4-3.6,1.3c-1.8-0.3-2.8-2.2-3.3-3.9s-0.6-3.6-1.7-5.1c-1-1.1-2.1-2-3.3-2.8c-1.3-0.8-2.2-2-2.6-3.4
	c-0.1-0.6,0-1.3-0.1-1.9c-0.2-1.6-1.3-3-2.8-3.7c-0.9-0.3-2-0.5-2.5-1.3c1.3-0.8,2.2-2.1,2.6-3.5c0.4-1.5,0.6-3,0.6-4.5l0.3-5
	c0.1-2.3,0.2-4.5,1.2-6.5c0.4-0.9,1-1.8,1.5-2.6c0.6-1.3,1.1-2.5,1.5-3.9c0.7-2.1,1.4-4.1,2.1-6.2c0.2-1,0.6-2,1.1-2.9
	C134.7,792.8,135.5,791.7,136.5,791.5z"/>
<path class="st6" d="M125.4,824.1h1.3l0.3-2c0-0.4,0.1-0.8,0.3-1.2c0.2-0.4,0.5-0.8,0.8-1.1c1.3-1.8,1.2-4.3,1.5-6.5
	c0.6-3,1.6-5.9,2.9-8.6l2.6-5.8c0.2-0.5,0.4-1,0.6-1.5c0.1-0.6,0.2-1.1,0.2-1.7c0-0.9,0.3-4.1,0.3-5c0-0.3-0.7-0.2-0.9-0.4
	c-0.3-0.6-0.8,1.1-1.4,1.5c-0.6,0.4-1,1-1.2,1.7c-0.6,1.4-0.9,3-1.4,4.4c-0.5,1.5-1.3,2.8-2.4,3.9c-0.5,0.5-1.1,0.8-1.6,1.3
	c-1.6,1.6-1.8,4.1-1.8,6.3C125.3,811,125.1,824.1,125.4,824.1z"/>
<path class="st6" d="M144.5,789.1c-1.3,0.7-2.1,1.9-2.4,3.3c-0.2,1.4-0.6,2.7-1.2,4c-1.6,2.8-5.8,3.6-6.9,6.7
	c-0.3,1-0.4,2.1-0.5,3.2c-0.2,2.2-0.9,4.3-1.1,6.5c-0.1,1.7-0.1,3.4,0.1,5.1L134,835c0.3,2.5,0.1,5.1-0.4,7.6c1.5,0.2,3,0,4.3-0.7
	c1.4-0.6,2.6-1.5,3.9-2.2c2.2-1.2,4.7-2.1,6.7-3.8c0.4-0.3,0.7-0.6,0.9-1c0.3-0.7,0.5-1.5,0.6-2.3c0.2-0.6,0.4-1.2,0.7-1.8
	c0.7-1.7,1.3-3.5,1.9-5.3c0.4-1.2,0.6-2.4,0.9-3.6c0.2-1,0.3-2,0.3-3c0.1-1.6,0.4-3.1,0.9-4.5c1.3-3.5,2-7.2,2.1-10.9
	c0-0.5,0-1.1-0.1-1.6c-0.2-0.6-0.5-1.3-0.9-1.8c-0.6-1.1-1-2.4-1.5-3.5c-1.4-2.5-3.5-4.7-5.9-6.2
	C147.2,789.5,145.8,788.6,144.5,789.1z"/>
<path class="st7" d="M114.3,817.2c-1-0.5-2-1.2-2.8-2.1c-0.4-0.4-0.7-0.9-1-1.3c-0.9-1-2.1-1.7-3.5-2c-1.3-0.3-2.7-0.4-4-0.4
	c-0.9-0.1-1.8,0-2.7,0.3c-0.9,0.3-1.5,1-1.8,1.9c-0.1,1.1,0.4,2.2,1.4,2.8c0.8,0.6,1.7,1.1,2.7,1.3c0.8,0.1,1.6,0.2,2.4,0.3
	c4.8,0.5,9,3.1,13.2,5.5c3.7,2.1,7.4,4,11.3,5.8c0.1-1.1,0.2-2.3,0.2-3.5c0-0.9-0.1-2.2-0.9-2.7c-1.2-0.5-2.4-0.8-3.6-1.1
	c-2.5-0.8-4.9-1.8-7.2-2.9C116.8,818.6,115.5,817.9,114.3,817.2z"/>
<ellipse class="st7" cx="135.2" cy="781.6" rx="8.5" ry="8.6"/>
<path class="st6" d="M146.9,798.8c-0.7,1-1.2,2-1.7,3.1c-1,2.2-2.7,4-3.5,6.3s-0.8,5.2-2.5,7.1c-0.3,0.3-0.6,0.7-0.8,1.1
	c0,0.3,0,0.5-0.1,0.8c-0.3,0.7-1.4,0.7-1.6,1.4c-0.1,0.2,0,0.4-0.1,0.6c-0.2,0.5-0.8,0.5-1.2,0.8c-0.8,0.6-0.7,1.9-1.3,2.7
	c-0.5,0.6-1.3,0.9-2.1,0.8c-0.8-0.2-1.5-0.4-2.2-0.8c-0.2-0.1-0.5-0.2-0.8-0.3c-0.3,0-0.7,0.1-0.9,0.3c-1.5,1.1-2.4,2.9-2.3,4.8
	c0.1,1.9,0.6,3.7,1.3,5.4c0.1,0.3,0.2,0.6,0.4,0.8c0.6,0.5,1.4,0.5,2.1,0.2c0.7-0.4,1.3-0.7,2.1-0.9c1.3-0.2,2.6,0.7,4,0.6
	c1-0.1,1.9-0.5,2.7-1.2c1.3-0.8,2.6-1.8,3.6-3c0.6-0.8,1-1.6,1.5-2.5c0.7-1,1.4-2,2.1-2.9l4.9-6c0.5-0.6,0.9-1.2,1.3-1.8
	c0.4-0.9,0.8-1.8,1-2.8c0.5-1.6,0.9-3.2,1-4.9c0-1.4-0.1-2.8-0.4-4.1c-0.1-1.3-0.5-2.7-1-3.9C151.5,798.3,148.9,796.5,146.9,798.8z"
	/>
<path class="st9" d="M164,787.6c0-3.1-1.5-6-3.9-7.8c-0.1-5.6-4.2-10.3-9.7-11.1c-1.2-6-7-9.9-13-8.7c-4.6,0.9-8.1,4.6-8.8,9.3
	c-3.5-0.8-6.8,0.2-7.4,2.4s1.9,5,5.6,6c1.2,0.3,2.4,0.5,3.6,0.4c1.8,2.6,4.5,4.3,7.6,4.8c0.9,4.2,4.1,7.5,8.3,8.6
	c0.6,1.4,1.4,2.6,2.6,3.5c0,0.3,0,0.5,0,0.8c0,4,3.2,7.2,7.2,7.2c4,0,7.2-3.2,7.2-7.2c0,0,0,0,0,0c0-1.1-0.2-2.2-0.7-3.2
	C163.6,791.1,164.1,789.4,164,787.6z"/>
<path class="st3" d="M123.6,772.2c0.6-2.2,3.8-3.2,7.4-2.4c0.9-5.4,5.5-9.4,11-9.5h0.7c-1-0.3-2.1-0.5-3.1-0.5
	c-5.5,0.1-10.1,4.1-11,9.5c-3.5-0.8-6.8,0.2-7.4,2.4s1.9,5,5.6,6c0.7,0.2,1.4,0.3,2.1,0.4C125.4,777,123,774.4,123.6,772.2z"/>
<path class="st3" d="M151.4,796.2c0-0.3,0-0.5,0-0.8c-1.1-1-2-2.2-2.6-3.5c-4.2-1-7.4-4.4-8.3-8.6c-3.1-0.4-5.9-2.2-7.6-4.7
	c-0.7,0.1-1.4,0-2.1-0.1c1.8,2.4,4.4,4,7.4,4.4c0.9,4.2,4.1,7.5,8.3,8.6c0.6,1.4,1.4,2.6,2.6,3.5c0,0.3,0,0.5,0,0.8
	c-0.1,4,3.1,7.4,7.2,7.5C153.2,802.1,151.3,799.3,151.4,796.2z"/>
<ellipse transform="matrix(-0.6049 -0.7963 0.7963 -0.6049 -402.255 1367.1311)" class="st7" cx="138" cy="783.4" rx="1.8" ry="1.3"/>
</svg>
