<?xml version="1.0" encoding="utf-8"?>
<!-- Generator: Adobe Illustrator 19.0.0, SVG Export Plug-In . SVG Version: 6.00 Build 0)  -->
<svg version="1.1" id="a139742c-031f-4297-9910-0b661ecf4262"
	 xmlns="http://www.w3.org/2000/svg" xmlns:xlink="http://www.w3.org/1999/xlink" x="0px" y="0px" viewBox="-419 381 888.1 535"
	 style="enable-background:new -419 381 888.1 535;" xml:space="preserve">
<style type="text/css">
	.st0{fill:#E6E6E6;}
	.st1{fill:#3F3D56;}
	.st2{fill:#2F2E41;}
	.st3{fill:#A0616A;}
	.st4{fill:#CFCCE0;}
	.st5{fill:#FFFFFF;}
	.st6{fill:#2EA22E;}
	.st7{fill:#FF0000;}
</style>
<title>online_payments</title>
<path class="st0" d="M-360.8,772.7l-5.3-21c-9.5-4-19.1-7.5-29-10.4l-0.7,9.8l-2.7-10.8c-12.2-3.5-20.5-5-20.5-5
	s11.2,42.7,34.8,75.3l27.4,4.8l-21.3,3.1c3,3.6,6.1,6.9,9.5,10.1c34.2,31.8,72.4,46.4,85.2,32.6c12.8-13.8-4.6-50.7-38.8-82.5
	c-10.6-9.9-23.9-17.8-37.3-24L-360.8,772.7z"/>
<path class="st0" d="M-310,749.9l6.3-20.8c-6-8.3-12.5-16.3-19.4-23.9l-5.6,8l3.2-10.6c-8.7-9.3-15-14.9-15-14.9
	s-12.5,42.3-9.2,82.4l21,18.3l-19.8-8.4c0.7,4.6,1.7,9.1,2.9,13.6c12.9,44.9,38,77.1,56.1,71.9s22.3-45.8,9.4-90.7
	c-4-13.9-11.3-27.6-19.5-39.8L-310,749.9z"/>
<rect x="-418.9" y="868.7" class="st1" width="888" height="2.2"/>
<path class="st2" d="M-278.6,636.6c0,0-6.9,83.1-8.4,101c-1,11.2-3.5,22.2-7.4,32.7c0,0-3,5.9-3,11.9v75.7c0,0-5.9,0-4.5,5.9
	s3,16.3,3,16.3h22.3c0,0-1.5-4.5,3-5.9c4.5-1.5,0-13.4,0-13.4l23.8-89.1l35.6-74.2c0,0,20.8,66.8,25.2,74.2c0,0,16.3,83.1,19.3,90.6
	c3,7.4,4.5,7.4,3,10.4c-1.5,3-1.5,5.9,0,7.4s29.7,0,29.7,0l-7.4-105.4l-13.4-126.2l-68.3-20.8L-278.6,636.6z"/>
<path class="st2" d="M-282.6,868.3c0,0-7.4-26.7-19.3-5.9s-11.9,28.2-11.9,28.2s-19.3,28.2,7.4,25.2c26.7-3,20.8-16.3,20.8-16.3
	s10.4-5.9,10.4-10.4C-275.1,884.6-282.6,868.3-282.6,868.3z"/>
<path class="st2" d="M-162.3,865.3c0,0,7.4-26.7,19.3-5.9s11.9,28.2,11.9,28.2s19.3,28.2-7.4,25.2s-20.8-16.3-20.8-16.3
	s-10.4-5.9-10.4-10.4C-169.7,881.6-162.3,865.3-162.3,865.3z"/>
<path class="st3" d="M-232.1,436.2c0,0,3,19.3-5.9,23.8s19.3,20.8,26.7,20.8s20.8-14.8,20.8-14.8s-7.4-22.3-5.9-26.7L-232.1,436.2z"
	/>
<circle class="st3" cx="-215.8" cy="419.9" r="31.2"/>
<path class="st4" d="M-154.9,483.7l-37.1-22.5c0,0-21.1,24-44-2.8l-39.2,10.4l5.9,101c0,0-8.9,40.1-5.9,47.5s-7.4,10.4-4.5,11.9
	s0,11.9,0,11.9s57.9,29.7,121.8,7.4l-5.9-19.3c1.6-5.1,0.5-10.7-3-14.8c0,0,5.9-8.9-1.5-16.3c0,0,3-13.4-4.5-19.3l-1.5-20.8
	l4.5-10.4L-154.9,483.7z"/>
<path class="st2" d="M-231.7,405.4c0,0-3.7,8,11.2,4.8c0,0,5.6,3.2,5.6-1.6c0,0,7.4,8,9.3,3.2c1.9-4.8,5.6,1.6,5.6,1.6l3.7-8
	l3.7,4.8h13c0,0,3.7-32.2-40.9-29c-44.6,3.2-22.7,54.2-22.7,54.2s0.4-9.2,4.1-4.3S-231.7,405.4-231.7,405.4z"/>
<path class="st3" d="M-141.5,543.1l1.5,31.2c0,0,5.9,57.9-5.9,83.1v13.4c0,0-3,34.1-17.8,32.7c-14.8-1.5,4.5-49,4.5-49l-3-65.3
	l-3-37.1L-141.5,543.1z"/>
<path class="st4" d="M-171.2,485.2l14.8-2.4c10.7,10.3,17.9,23.5,20.8,38c4.5,23.8,5.9,28.2,5.9,28.2l-35.6,8.9l-19.3-37.1
	L-171.2,485.2z"/>
<rect x="-235" y="468.3" class="st5" width="234.3" height="116.4"/>
<path class="st6" d="M-209.4,475.3c-6-3.6-13.3-3.3-16-3.1c1.1,2.6,4.2,9.1,10.2,12.7c6,3.6,13.3,3.3,16,3.1
	C-200.2,485.4-203.4,478.9-209.4,475.3z"/>
<path class="st6" d="M-181.1,547.1h-37.6c-4.7,0-8.5,3.8-8.5,8.5s3.8,8.5,8.5,8.5l0,0h37.6c4.7,0,8.5-3.8,8.5-8.5
	S-176.4,547.1-181.1,547.1z"/>
<path class="st6" d="M-10.7,457.7h-210.9c-10.3,0-18.7,8.4-18.7,18.7v0v102.8c0,10.3,8.4,18.7,18.7,18.7h0h210.9
	c10.3,0,18.7-8.4,18.7-18.7V476.4C7.9,466.1-0.4,457.7-10.7,457.7C-10.7,457.7-10.7,457.7-10.7,457.7z M-226.9,470.5
	c0.4-0.1,10.3-1.8,18.5,3.2c8.2,4.9,11.3,14.4,11.5,14.8l0.3,1l-1.1,0.2c-1.5,0.2-3,0.3-4.6,0.3c-4.9,0.1-9.7-1.1-13.9-3.5
	c-8.2-4.9-11.3-14.4-11.5-14.8l-0.3-1L-226.9,470.5z M-181.1,565.9h-37.6c-5.7,0-10.3-4.6-10.3-10.4c0-5.7,4.6-10.3,10.3-10.3h37.6
	c5.7,0,10.4,4.6,10.4,10.3C-170.8,561.3-175.4,565.9-181.1,565.9C-181.1,565.9-181.1,565.9-181.1,565.9z M-9.9,564
	c0,6.2-5.1,11.3-11.3,11.3h-28.2c-6.2,0-11.3-5.1-11.3-11.3v-16.9c0-6.2,5.1-11.3,11.3-11.3h28.2c6.2,0,11.3,5.1,11.3,11.3V564z"/>
<path class="st6" d="M-40.5,560.7h-12.2c-1.8,0-3.3,1.5-3.3,3.3c0,1.8,1.5,3.3,3.3,3.3h12.2c1.8,0,3.3-1.5,3.3-3.3
	C-37.2,562.2-38.7,560.7-40.5,560.7z M-40.5,565.4h-12.2c-0.8,0-1.4-0.6-1.4-1.4c0-0.8,0.6-1.4,1.4-1.4c0,0,0,0,0,0h12.2
	c0.8,0,1.4,0.6,1.4,1.4C-39.1,564.8-39.7,565.4-40.5,565.4z"/>
<path class="st6" d="M-17.9,560.7h-12.2c-1.8,0-3.3,1.5-3.3,3.3c0,1.8,1.5,3.3,3.3,3.3h12.2c1.8,0,3.3-1.5,3.3-3.3
	C-14.6,562.2-16.1,560.7-17.9,560.7z M-17.9,565.4h-12.2c-0.8,0-1.4-0.6-1.4-1.4c0-0.8,0.6-1.4,1.4-1.4c0,0,0,0,0,0h12.2
	c0.8,0,1.4,0.6,1.4,1.4C-16.5,564.8-17.1,565.4-17.9,565.4z"/>
<path class="st6" d="M-40.5,552.3h-12.2c-1.8,0-3.3,1.5-3.3,3.3c0,1.8,1.5,3.3,3.3,3.3h12.2c1.8,0,3.3-1.5,3.3-3.3
	C-37.2,553.7-38.7,552.3-40.5,552.3z M-40.5,557h-12.2c-0.8,0-1.4-0.6-1.4-1.4c0-0.8,0.6-1.4,1.4-1.4c0,0,0,0,0,0h12.2
	c0.8,0,1.4,0.6,1.4,1.4S-39.7,557-40.5,557C-40.5,557-40.5,557-40.5,557z"/>
<path class="st6" d="M-17.9,552.3h-12.2c-1.8,0-3.3,1.5-3.3,3.3c0,1.8,1.5,3.3,3.3,3.3h12.2c1.8,0,3.3-1.5,3.3-3.3
	C-14.6,553.7-16.1,552.3-17.9,552.3z M-17.9,557h-12.2c-0.8,0-1.4-0.6-1.4-1.4c0-0.8,0.6-1.4,1.4-1.4c0,0,0,0,0,0h12.2
	c0.8,0,1.4,0.6,1.4,1.4S-17.1,557-17.9,557C-17.9,557-17.9,557-17.9,557z"/>
<path class="st6" d="M-40.5,543.8h-12.2c-1.8,0-3.3,1.5-3.3,3.3c0,1.8,1.5,3.3,3.3,3.3h12.2c1.8,0,3.3-1.5,3.3-3.3
	C-37.2,545.3-38.7,543.8-40.5,543.8z M-40.5,548.5h-12.2c-0.8,0-1.4-0.6-1.4-1.4c0-0.8,0.6-1.4,1.4-1.4c0,0,0,0,0,0h12.2
	c0.8,0,1.4,0.6,1.4,1.4C-39.1,547.9-39.7,548.5-40.5,548.5z"/>
<path class="st6" d="M-17.9,543.8h-12.2c-1.8,0-3.3,1.5-3.3,3.3c0,1.8,1.5,3.3,3.3,3.3h12.2c1.8,0,3.3-1.5,3.3-3.3
	C-14.6,545.3-16.1,543.8-17.9,543.8z M-17.9,548.5h-12.2c-0.8,0-1.4-0.6-1.4-1.4c0-0.8,0.6-1.4,1.4-1.4c0,0,0,0,0,0h12.2
	c0.8,0,1.4,0.6,1.4,1.4C-16.5,547.9-17.1,548.5-17.9,548.5z"/>
<path class="st3" d="M-297.4,525.3c0,0-13.4,56.4,3,56.4s54.9-63.8,54.9-63.8s40.1-20.8,23.8-28.2s-37.1,11.9-37.1,11.9l-24,33.3
	l-1.3-17L-297.4,525.3z"/>
<path class="st4" d="M-266.2,477.8l-8.9-8.9c0,0-17.8,10.4-19.3,20.8s-8.9,43.1-8.9,43.1l27.5,2.2l8.9-13.4L-266.2,477.8z"/>
<path class="st6" d="M155.8,456.7c-1.1-3.3-15.1-14.5-6.6-16.4l7,9.4l32.4-32.4l3.3,3.3L155.8,456.7z"/>
<circle class="st1" cx="253.9" cy="443.3" r="10"/>
<rect x="291.4" y="442.3" class="st1" width="161" height="2"/>
<circle class="st1" cx="253.9" cy="553.4" r="10"/>
<rect x="291.4" y="552.4" class="st1" width="161" height="2"/>
<circle class="st1" cx="253.9" cy="665.2" r="10"/>
<rect x="291.4" y="664.2" class="st1" width="161" height="2"/>
<polygon class="st1" points="181,693.5 131,693.5 131,642.5 165,642.5 165,644.5 133,644.5 133,691.5 179,691.5 179,668.5 
	181,668.5 "/>
<polygon class="st1" points="181,581.5 131,581.5 131,530.5 165,530.5 165,532.5 133,532.5 133,579.5 179,579.5 179,556.5 
	181,556.5 "/>
<polygon class="st1" points="181,467.5 131,467.5 131,416.5 165,416.5 165,418.5 133,418.5 133,465.5 179,465.5 179,442.5 
	181,442.5 "/>
<polygon class="st7" points="141,543.4 149,543.4 156.2,550.7 163.2,543.7 170.5,543.7 159.7,554.5 169.1,564 163,564 155.9,556.8 
	149.9,562.8 141,562.8 150.7,553.1 "/>
<polygon class="st7" points="141.3,660.1 149.3,660.1 156.5,667.4 163.5,660.4 170.8,660.4 160,671.2 169.4,680.7 163.3,680.7 
	156.2,673.5 150.2,679.5 141.3,679.5 151,669.8 "/>
</svg>
