<?xml version="1.0" encoding="utf-8"?>
<!-- Generator: Adobe Illustrator 19.0.0, SVG Export Plug-In . SVG Version: 6.00 Build 0)  -->
<svg version="1.1" id="eb56cac1-988a-4970-8192-095cb31178d1"
	 xmlns="http://www.w3.org/2000/svg" xmlns:xlink="http://www.w3.org/1999/xlink" x="0px" y="0px" viewBox="-423 280.5 880.9 737.5"
	 style="enable-background:new -423 280.5 880.9 737.5;" xml:space="preserve">
<style type="text/css">
	.st0{fill:#FFFFFF;}
	.st1{fill:#F5F5F5;}
	.st2{opacity:0.4;enable-background:new    ;}
	.st3{fill:#0F810F;}
	.st4{opacity:0.6;fill:#0F810F;enable-background:new    ;}
	.st5{opacity:0.4;fill:#0F810F;enable-background:new    ;}
	.st6{fill:none;stroke:#0F810F;stroke-miterlimit:10;}
	.st7{fill:none;stroke:#000000;stroke-miterlimit:10;stroke-dasharray:12.71,12.71;}
	.st8{fill:none;stroke:#000000;stroke-miterlimit:10;stroke-dasharray:11.33,11.33;}
	.st9{fill:none;stroke:#000000;stroke-miterlimit:10;stroke-dasharray:12;}
	.st10{opacity:0.2;enable-background:new    ;}
	.st11{fill:url(#SVGID_1_);}
	.st12{fill:url(#SVGID_2_);}
	.st13{fill:url(#SVGID_3_);}
	.st14{fill:url(#SVGID_4_);}
	.st15{fill:url(#SVGID_5_);}
	.st16{fill:url(#SVGID_6_);}
	.st17{fill:url(#SVGID_7_);}
	.st18{fill:url(#SVGID_8_);}
	.st19{fill:#F8C198;}
	.st20{fill:#263238;}
	.st21{opacity:0.2;}
	.st22{opacity:0.2;fill:#FFFFFF;enable-background:new    ;}
	.st23{fill:#FF5252;}
	.st24{fill:#FCCC63;}
	.st25{fill:none;stroke:#000000;stroke-width:3;stroke-miterlimit:10;}
</style>
<title>processing</title>
<rect x="-423" y="280.5" width="388" height="524"/>
<rect x="-400" y="288.5" class="st0" width="358" height="506"/>
<rect x="-417" y="288.5" class="st1" width="17" height="506"/>
<rect x="-341" y="663.5" width="240" height="6"/>
<rect x="-341" y="686.5" class="st2" width="240" height="6"/>
<rect x="-341" y="709.5" class="st2" width="240" height="6"/>
<rect x="-341" y="732.5" width="240" height="6"/>
<rect x="-341" y="755.5" width="240" height="6"/>
<path class="st3" d="M-261.5,370c0.1-1.1,0.2-2.2,0.2-3.4c0-3.5-0.5-7-1.5-10.3l-4.4,0.2l-2-5.5l2.8-3.1c-2.3-4-5.3-7.5-8.9-10.4
	l-3.4,2.7l-4.8-3.3l0.5-4.1c-4.2-2-8.7-3.1-13.3-3.4l-1.3,4.1h-5.8l-1.9-3.7c-6.7,1.2-13,4.2-18.1,8.6l2,3.8l-4.1,4.1l-4-1.3
	c-2.7,3.8-4.6,8-5.7,12.5l3.9,2l-1,5.7l-4,1.3c0,0,0,0.1,0,0.1c0,4.6,0.8,9.1,2.5,13.4l4.3-0.6l2.5,5.3l-2.5,3.3
	c2.6,3.8,5.9,7,9.8,9.6l3.2-3l5,2.9l-0.2,4.2c4.1,1.5,8.5,2.3,12.9,2.3h0.6l0.9-4.3l5.8-0.5l2.2,3.5c4.5-1.2,8.7-3.2,12.4-5.9
	l-1.7-4l4.5-3.8l3.8,1.6c3-3.5,5.3-7.6,6.8-11.9l-3.7-2.3l1.5-5.6L-261.5,370z M-298.8,394.7c-15.5,0-28-12.5-28-28s12.5-28,28-28
	c15.5,0,28,12.5,28,28C-270.8,382.2-283.3,394.7-298.8,394.7L-298.8,394.7z"/>
<path class="st4" d="M-215.4,439c0.1-1.1,0.2-2.2,0.2-3.4c0-3.5-0.5-7-1.5-10.3l-4.4,0.2l-2-5.5l2.8-3.1c-2.3-4-5.3-7.5-8.9-10.4
	l-3.4,2.7l-4.8-3.3l0.5-4.1c-4.2-2-8.7-3.1-13.3-3.4l-1.3,4.1h-5.8l-1.9-3.7c-6.7,1.2-13,4.2-18.1,8.6l2,3.8l-4.1,4.1l-4-1.3
	c-2.7,3.8-4.6,8-5.7,12.5l3.9,2l-1,5.7l-4,1.3c0,0,0,0.1,0,0.1c0,4.6,0.8,9.1,2.5,13.4l4.3-0.6l2.5,5.3l-2.5,3.3
	c2.6,3.8,5.9,7,9.8,9.6l3.2-3l5,2.9l-0.2,4.2c4.1,1.5,8.5,2.3,12.9,2.3h0.6l0.9-4.3l5.8-0.5l2.2,3.5c4.5-1.2,8.7-3.2,12.4-5.9
	l-1.7-4l4.5-3.8l3.8,1.6c3-3.5,5.3-7.6,6.8-11.9l-3.7-2.3l1.5-5.6L-215.4,439z M-252.7,463.7c-15.5,0-28-12.5-28-28s12.5-28,28-28
	s28,12.5,28,28C-224.8,451.2-237.3,463.7-252.7,463.7z"/>
<path class="st5" d="M-168.4,370c0.1-1.1,0.2-2.2,0.2-3.4c0-3.5-0.5-7-1.5-10.3l-4.4,0.2l-2-5.5l2.8-3.1c-2.3-4-5.3-7.5-8.9-10.4
	l-3.4,2.7l-4.8-3.3l0.5-4.1c-4.2-2-8.7-3.1-13.3-3.4l-1.3,4.1h-5.8l-1.9-3.7c-6.7,1.2-13,4.2-18.1,8.6l2,3.8l-4.1,4.1l-4-1.3
	c-2.7,3.8-4.6,8-5.7,12.5l3.9,2l-1,5.7l-4,1.3c0,0,0,0.1,0,0.1c0,4.6,0.8,9.1,2.5,13.4l4.3-0.6l2.5,5.3l-2.5,3.3
	c2.6,3.8,5.9,7,9.8,9.6l3.2-3l5,2.9l-0.2,4.2c4.1,1.5,8.5,2.3,12.9,2.3h0.6l0.9-4.3l5.8-0.5l2.2,3.5c4.5-1.2,8.7-3.2,12.4-5.9
	l-1.7-4l4.5-3.8l3.8,1.6c3-3.5,5.3-7.6,6.8-11.9l-3.7-2.3l1.5-5.6L-168.4,370z M-205.7,394.7c-15.5,0-28-12.5-28-28s12.5-28,28-28
	s28,12.5,28,28C-177.8,382.2-190.3,394.7-205.7,394.7L-205.7,394.7z"/>
<path class="st3" d="M-111.4,439c0.1-1.1,0.2-2.2,0.2-3.4c0-3.5-0.5-7-1.5-10.3l-4.4,0.2l-2-5.5l2.8-3.1c-2.3-4-5.3-7.5-8.9-10.4
	l-3.4,2.7l-4.8-3.3l0.5-4.1c-4.2-2-8.7-3.1-13.3-3.4l-1.3,4.1h-5.8l-1.9-3.7c-6.7,1.2-13,4.2-18.1,8.6l2,3.8l-4.1,4.1l-4-1.3
	c-2.7,3.8-4.6,8-5.7,12.5l3.9,2l-1,5.7l-4,1.3c0,0,0,0.1,0,0.1c0,4.6,0.8,9.1,2.5,13.4l4.3-0.6l2.5,5.3l-2.5,3.3
	c2.6,3.8,5.9,7,9.8,9.6l3.2-3l5,2.9l-0.2,4.2c4.1,1.5,8.5,2.3,12.9,2.3h0.6l0.9-4.3l5.8-0.5l2.2,3.5c4.5-1.2,8.7-3.2,12.4-5.9
	l-1.7-4l4.5-3.8l3.8,1.6c3-3.5,5.3-7.6,6.8-11.9l-3.7-2.3l1.5-5.6L-111.4,439z M-148.7,463.7c-15.5,0-28-12.5-28-28s12.5-28,28-28
	s28,12.5,28,28C-120.8,451.2-133.3,463.7-148.7,463.7z"/>
<line class="st6" x1="-261.8" y1="302.5" x2="-267.8" y2="302.5"/>
<line class="st7" x1="-280.5" y1="302.5" x2="-350.4" y2="302.5"/>
<polyline class="st6" points="-356.8,302.5 -362.8,302.5 -362.8,308.5 "/>
<line class="st8" x1="-362.8" y1="319.8" x2="-362.8" y2="404.8"/>
<line class="st6" x1="-362.8" y1="410.5" x2="-362.8" y2="416.5"/>
<polyline class="st9" points="-215.3,503 -79.3,503 -79.3,384 "/>
<rect x="-320" y="541.5" width="307" height="80"/>
<rect x="-317" y="546.5" class="st3" width="300" height="71"/>
<rect x="-237" y="563.5" class="st3" width="88" height="4"/>
<rect x="-237" y="572.5" class="st10" width="88" height="4"/>
<rect x="-237" y="587.5" class="st0" width="172" height="4"/>
<circle class="st3" cx="-283" cy="581.5" r="19"/>
<circle class="st10" cx="-283" cy="581.5" r="19"/>
<linearGradient id="SVGID_1_" gradientUnits="userSpaceOnUse" x1="275.3748" y1="333.5399" x2="275.3748" y2="609.6168" gradientTransform="matrix(1 0 0 -1 -159.54 1219)">
	<stop  offset="0" style="stop-color:#808080;stop-opacity:0.25"/>
	<stop  offset="0.54" style="stop-color:#808080;stop-opacity:0.12"/>
	<stop  offset="1" style="stop-color:#808080;stop-opacity:0.1"/>
</linearGradient>
<path class="st11" d="M181.1,762.5c0.4-0.4,0.5-1,0.2-1.5c-4.3-8.6-8.6-6.5-21.3-31.1c-13.5-26.2-10.2-34.9-15.2-39.9
	c-2-2-4.1-8.7-6.8-9.9l-1.8-7.1c1.6,0.2,3.2-0.1,4.7-0.7c2.8-1.2,4.9-3.6,6.8-6c2.9-3.6,5.3-7.6,7-11.8c1.2-3.1,1.8-6.4,2-9.7l0,0
	c0.1-1.7,0.1-3.3-0.1-5c3.1-0.5,6.1-1.8,8.7-3.7c3-2.4,5-6,5.5-9.8l0,0c0-0.4,0.1-0.8,0.1-1.2c0-0.5,0-0.9,0-1.4
	c-0.3-4.8-2.9-9.1-6.9-11.7c-3.6-2.1-7.8-3-12-2.5c-4.2,0.5-8.2,1.5-12.1,3c-1,0.3-2.4,0.7-3.8,1.3c-2.8-0.9-5.8-1.4-8.8-1.4
	c-4.9,0-9.6,1.3-14.3,2.5l-15.8,4.2c-3.5,0.9-7.2,2-9.8,4.5c-0.2,0.2-0.4,0.5-0.7,0.7l-0.1,0.1c-0.2,0.3-0.4,0.5-0.6,0.8l0,0
	c-1.6,2.5-1.9,5.9,0,8.1c0.9,1,2.1,1.8,3.4,2.3c1.5,0.7,3.1,1.3,4.8,1.8c-2.9,4.3-4.5,9.4-4.5,14.6c0,0.3,0,0.6,0,0.9s0,0.6,0,0.9
	c0,14.4,11.7,26.1,26.1,26.1l0,0h0.4l0.8,6.1c-3.5,3.7-6.5,7.9-8.9,12.5c-3,2.8-4.6,6.7-4.4,10.8c0,4.3,1.1,9.7,2.3,17l-37.1-15.8
	l-23.2,49.9l17.8,6.6c-8.4,0.4-13,6.5-12.9,12.7c-0.1,3.4,1.2,6.8,3.7,9.2c6.5,6.5,14.3,73.6,14.3,73.6h3.3v7
	c-13.2,0.8-26.6,2.4-26.6,5.7c0.1,3.2,1.7,6.2,4.2,8.2c-0.2-0.2-0.4-0.5-0.6-0.7c1,1,2.1,1.9,3.4,2.6H124v-14.8h0.1v-1.8
	c0,0-2.6,0-6.6,0.1v-6.3h3.3c2.9-26.2-9.8-60.2-12.5-67.2c4.5,0,9.2-0.1,13.8-0.3c19.8,0.9,53.8,0.7,60.7-10.8
	C190.4,771.7,184.3,764.9,181.1,762.5z M81.7,794.1c0,0,1.5,0.2,4,0.3c2.7,7.7,4.7,20.3,6.1,32.6C89.3,815.8,85.9,804.8,81.7,794.1z
	 M110.3,677.7c1.8,0.4,3.7,0.6,5.5,0.6h0.2l0.2,1.3C114.2,679.2,112.2,678.5,110.3,677.7L110.3,677.7z M98,869.1h-0.5v-0.3
	c0,0-2.3,0-6,0.1v-6.3H98L98,869.1z"/>
<linearGradient id="SVGID_2_" gradientUnits="userSpaceOnUse" x1="98" y1="428" x2="141" y2="428" gradientTransform="matrix(1 0 0 -1 0 1301)">
	<stop  offset="0" style="stop-color:#808080;stop-opacity:0.25"/>
	<stop  offset="0.54" style="stop-color:#808080;stop-opacity:0.12"/>
	<stop  offset="1" style="stop-color:#808080;stop-opacity:0.1"/>
</linearGradient>
<polygon class="st12" points="114,792.5 98,952.5 117,953.5 141,792.5 "/>
<polygon class="st3" points="115,792.5 103,950.5 115,950.5 132,792.5 "/>
<linearGradient id="SVGID_3_" gradientUnits="userSpaceOnUse" x1="441" y1="353.5" x2="441" y2="514.5" gradientTransform="matrix(1 0 0 -1 0 1301)">
	<stop  offset="0" style="stop-color:#808080;stop-opacity:0.25"/>
	<stop  offset="0.54" style="stop-color:#808080;stop-opacity:0.12"/>
	<stop  offset="1" style="stop-color:#808080;stop-opacity:0.1"/>
</linearGradient>
<polygon class="st13" points="442.2,786.5 457.9,947.5 439.2,947.5 424.1,786.5 "/>
<polygon class="st3" points="442,787.5 454,945.5 442,945.5 425,787.5 "/>
<linearGradient id="SVGID_4_" gradientUnits="userSpaceOnUse" x1="164" y1="354.5" x2="164" y2="515.5" gradientTransform="matrix(1 0 0 -1 0 1301)">
	<stop  offset="0" style="stop-color:#808080;stop-opacity:0.25"/>
	<stop  offset="0.54" style="stop-color:#808080;stop-opacity:0.12"/>
	<stop  offset="1" style="stop-color:#808080;stop-opacity:0.1"/>
</linearGradient>
<polygon class="st14" points="160.9,785.5 146,946.5 165.9,946.5 182,785.5 "/>
<polygon class="st3" points="162,785.5 150,943.5 162,943.5 179,785.5 "/>
<linearGradient id="SVGID_5_" gradientUnits="userSpaceOnUse" x1="395.5" y1="348.5" x2="395.5" y2="513.5" gradientTransform="matrix(1 0 0 -1 0 1301)">
	<stop  offset="0" style="stop-color:#808080;stop-opacity:0.25"/>
	<stop  offset="0.54" style="stop-color:#808080;stop-opacity:0.12"/>
	<stop  offset="1" style="stop-color:#808080;stop-opacity:0.1"/>
</linearGradient>
<polygon class="st15" points="398.7,787.5 414,952.5 395.7,952.5 377,787.5 "/>
<polygon class="st3" points="398,792.5 410,950.5 398,950.5 381,792.5 "/>
<linearGradient id="SVGID_6_" gradientUnits="userSpaceOnUse" x1="269.5" y1="500.5" x2="269.5" y2="517.5" gradientTransform="matrix(1 0 0 -1 0 1301)">
	<stop  offset="0" style="stop-color:#808080;stop-opacity:0.25"/>
	<stop  offset="0.54" style="stop-color:#808080;stop-opacity:0.12"/>
	<stop  offset="1" style="stop-color:#808080;stop-opacity:0.1"/>
</linearGradient>
<rect x="90" y="783.5" class="st16" width="359" height="17"/>
<rect x="93" y="783.5" class="st3" width="288" height="15"/>
<rect x="381" y="783.5" class="st3" width="66" height="15"/>
<rect x="381.5" y="783.5" class="st10" width="66" height="15"/>
<rect x="206" y="687.5" width="135" height="85"/>
<rect x="209" y="690.5" class="st0" width="126" height="79"/>
<linearGradient id="SVGID_7_" gradientUnits="userSpaceOnUse" x1="273.5" y1="517.5" x2="273.5" y2="538.5" gradientTransform="matrix(1 0 0 -1 0 1301)">
	<stop  offset="0" style="stop-color:#808080;stop-opacity:0.25"/>
	<stop  offset="0.54" style="stop-color:#808080;stop-opacity:0.12"/>
	<stop  offset="1" style="stop-color:#808080;stop-opacity:0.1"/>
</linearGradient>
<rect x="253" y="762.5" class="st17" width="41" height="21"/>
<rect x="254.5" y="762.5" width="35" height="21"/>
<rect x="335" y="690.5" class="st1" width="4" height="79"/>
<rect x="289" y="762.5" width="3" height="21"/>
<linearGradient id="SVGID_8_" gradientUnits="userSpaceOnUse" x1="272" y1="572.5" x2="272" y2="582.5" gradientTransform="matrix(1 0 0 -1 0 1301)">
	<stop  offset="0" style="stop-color:#808080;stop-opacity:0.25"/>
	<stop  offset="0.54" style="stop-color:#808080;stop-opacity:0.12"/>
	<stop  offset="1" style="stop-color:#808080;stop-opacity:0.1"/>
</linearGradient>
<rect x="267" y="718.5" class="st18" width="10" height="10"/>
<rect x="268" y="719.5" class="st1" width="8" height="8"/>
<polygon class="st3" points="76.8,710.6 142.2,738.4 120.2,780.2 55.6,756.4 "/>
<rect x="79.5" y="844.1" class="st19" width="18" height="15"/>
<rect x="103.5" y="844.1" class="st19" width="18" height="15"/>
<circle class="st19" cx="119.9" cy="657" r="23.9"/>
<polygon class="st19" points="142.3,691.4 121.4,691.4 118.4,667.5 136.3,667.5 "/>
<path class="st20" d="M154.4,757.3c0,0,12,6,3,21s-68.8,9-68.8,9s15,35.9,12,62.8h-24c0,0-7.2-61.7-13.1-67.7
	c-7.6-7.6-1.9-22.2,13.1-19.2S154.4,757.3,154.4,757.3z"/>
<g class="st21">
	<path class="st0" d="M93.4,786.7c0,0,10.5,1,23.4,1.2c-9.3,0.1-18-0.4-23.2-0.8L93.4,786.7z"/>
	<path class="st0" d="M88.2,763.3c23.4-0.5,66.2-6.6,66.2-6.6c0.3,0.2,0.6,0.3,0.9,0.5C143.1,759,106.1,763.8,88.2,763.3z"/>
	<path class="st0" d="M75.2,762.5c-10.2,1.5-13.3,13-6.9,19.5c5.9,5.9,13.1,67.6,13.1,67.6h-4.9c0,0-7.2-61.7-13.1-67.6
		C56,774.6,61.2,760.7,75.2,762.5z"/>
</g>
<path class="st20" d="M103.5,856.1c0,0-47.9,0-47.9,6s6,9,6,9h41.9V856.1z"/>
<path class="st22" d="M103,855.9v1.6c-8.3,0.1-46.3,0.7-46.3,6c0,2.2,0.8,4.3,2.2,5.9c-2.4-1.8-3.8-4.6-3.9-7.5
	C55.1,855.9,103,855.9,103,855.9z"/>
<path class="st20" d="M178.3,757.3c0,0,12,6,3,21s-68.8,9-68.8,9s15,35.9,12,62.8h-24c0,0-3-62.8-12-68.8s-3-21,12-18
	S178.3,757.3,178.3,757.3z"/>
<path class="st20" d="M127.5,856.1c0,0-47.9,0-47.9,6s6,9,6,9h41.9V856.1z"/>
<path class="st23" d="M138.1,682.5h7.3c2.9,0,4.9,7.2,7,9.2c4.7,4.6,1.6,12.6,14,36.7C178.1,751,182,749,186,756.9
	s-70.5,7.5-70.5,7.5s3.8-15.1,3-26.2c-1.6-22.8-7.6-30.7,0.3-38.6C118.8,699.6,127.2,682.5,138.1,682.5z"/>
<polygon class="st0" points="78.5,722 68.7,743.3 75.2,746.6 85,725.3 "/>
<path class="st22" d="M119.9,634.7c0.8,0,1.6,0,2.5,0.1c-13.2,1.3-22.7,13.1-21.4,26.2c1.1,11.3,10.1,20.3,21.4,21.4
	c-0.8,0.1-1.6,0.1-2.5,0.1c-13.2,0-23.9-10.7-23.9-23.9S106.6,634.7,119.9,634.7L119.9,634.7z"/>
<path class="st24" d="M93.7,630.8c2.4-2.3,5.8-3.2,9-4.1l14.5-3.9c4.3-1.1,8.7-2.3,13.1-2.3c2.7,0,5.4,0.4,8,1.3
	c1.2-0.5,2.5-0.9,3.4-1.2c3.6-1.3,7.3-2.2,11.1-2.7c3.8-0.4,7.7,0.4,11,2.3c6.3,4,8.3,12.3,4.3,18.7c-0.8,1.3-1.9,2.5-3.1,3.4
	c-2.3,1.7-5.1,2.9-7.9,3.4c0.5,4.6-0.1,9.2-1.7,13.5c-1.6,3.9-3.7,7.6-6.4,10.9c-1.7,2.2-3.7,4.4-6.3,5.5s-5.9,1-7.9-1
	c-1.5-1.5-2-3.6-2.3-5.7c-1.5-8.1-3-17.4-10-21.7c-4.4-2.7-9.3-2.4-14.2-2.4c-4.4,0-8.7-1-12.7-2.9c-1.2-0.5-2.3-1.2-3.2-2.1
	C90.4,637.2,91.4,633.1,93.7,630.8z"/>
<g class="st21">
	<path class="st0" d="M163.9,623.5c-3.3-1.9-7.2-2.7-11-2.3c-3.8,0.4-7.5,1.3-11.1,2.7c-0.9,0.3-2.2,0.7-3.4,1.2
		c-2.6-0.9-5.3-1.3-8-1.3c-4.5,0-8.8,1.2-13.1,2.3l-14.5,3.9c-3.2,0.9-6.6,1.8-9,4.1c-1.1,1.1-1.8,2.4-2.2,3.9
		c-0.6-2.6,0.3-5.3,2.2-7.1c2.4-2.3,5.8-3.2,9-4.1l14.5-3.9c4.3-1.2,8.7-2.3,13.1-2.3c2.7,0,5.4,0.4,8,1.3c1.2-0.5,2.5-0.9,3.4-1.2
		c3.6-1.3,7.3-2.2,11.1-2.7c3.8-0.4,7.7,0.4,11,2.3c3.7,2.4,6.1,6.4,6.3,10.8c0,0.8,0,1.6-0.1,2.3
		C169.6,629.3,167.4,625.7,163.9,623.5z"/>
	<path class="st0" d="M157.3,648.9c0,0.4,0,0.9,0,1.3C157.3,649.8,157.3,649.4,157.3,648.9L157.3,648.9z"/>
</g>
<path class="st22" d="M118.5,738.5c-1.6-22.8-7.6-30.7,0.3-38.6c0,0,8.5-17.1,19.3-17.1h7.3c1,0.1,1.9,0.7,2.4,1.6H143
	c-10.9,0-19.3,17.1-19.3,17.1c-7.9,7.9-2,15.8-0.3,38.6c0.6,8.9-1.7,20.4-2.6,24.6c-3.3,0-5.3,0-5.3,0S119.2,749.6,118.5,738.5z"/>
<rect x="121" y="705.7" class="st23" width="26.2" height="18"/>
<g class="st21">
	<path class="st0" d="M112.1,763.3c23.4-0.5,66.2-6.6,66.2-6.6c0.3,0.2,0.6,0.3,0.9,0.5C167,759,130,763.8,112.1,763.3z"/>
	<path class="st0" d="M99.2,762.6c-10.3,1.6-13.4,13.1-5.8,18.2c9,6,12,68.8,12,68.8h-5c0,0-3-62.8-12-68.8
		C79.8,774.9,85.2,760.6,99.2,762.6z"/>
	<path class="st0" d="M117.4,786.7c0,0,10.5,1,23.4,1.2c-9.3,0.1-18-0.4-23.2-0.8L117.4,786.7z"/>
</g>
<path class="st19" d="M145.4,718.4V747c0,10.1-8.2,18.3-18.3,18.3c-0.2,0-0.5,0-0.7,0c-12.7-0.5-27.2-0.7-28.9,1
	c-1.4,1.4-4.7,4.1-7.9,6.5c-2,1.6-4.9,1.2-6.5-0.8c-0.7-0.9-1.1-2.1-1-3.3c0.4-4.8,1.9-9.9,6.3-11.4c3.6-1.2,10-1.9,16.4-2.3
	c11-0.8,19.6-10,19.5-21v-15.6H145.4z"/>
<path class="st22" d="M82.2,768.7c0.4-4.8,1.9-9.9,6.3-11.4c3.6-1.2,10-1.9,16.4-2.3c11-0.8,19.6-10,19.5-21v-15.6h21v1.6h-17.7
	v15.6c0,11-8.5,20.2-19.5,21c-6.4,0.4-12.8,1.2-16.4,2.3c-4.4,1.5-6,6.6-6.3,11.4c-0.1,1.2,0.3,2.5,1.1,3.4
	c-2.6-0.1-4.5-2.3-4.4-4.9C82.2,768.8,82.2,768.8,82.2,768.7z"/>
<path class="st22" d="M127.5,855.9v1.6c-8.3,0.1-46.3,0.7-46.3,6c0,2.2,0.8,4.3,2.2,5.9c-2.4-1.8-3.8-4.6-3.9-7.5
	C79.6,855.9,127.5,855.9,127.5,855.9z"/>
<polyline class="st25" points="-248,803.8 -248,957.5 276,957.5 276,772.5 "/>
</svg>
